<svg width="128.000000" height="128.000000" viewBox="0 0 128 128" fill="none" xmlns="http://www.w3.org/2000/svg" xmlns:xlink="http://www.w3.org/1999/xlink">
	<desc>
			Created with Pixso.
	</desc>
	<defs/>
	<path id="C" d="M53.459 123.697C53.7422 124.225 54.1055 124.648 54.5449 124.967C54.9766 125.283 55.5469 125.488 56.2578 125.578C56.7109 125.635 57.1289 125.617 57.5117 125.523C57.8848 125.439 58.2148 125.285 58.5059 125.059C58.7969 124.844 59.0332 124.566 59.2188 124.23C59.4043 123.893 59.5254 123.502 59.5801 123.061C59.6348 122.629 59.6152 122.229 59.5195 121.855C59.4141 121.48 59.248 121.146 59.0234 120.855C58.7969 120.576 58.5137 120.342 58.1758 120.158C57.8281 119.971 57.4316 119.85 56.9902 119.793C56.2793 119.703 55.6758 119.758 55.1797 119.959C54.6738 120.156 54.2168 120.477 53.8105 120.918L52.3594 119.814C52.9219 119.086 53.6055 118.566 54.4121 118.252C55.2168 117.949 56.1406 117.863 57.1855 117.996C57.8965 118.086 58.5449 118.277 59.1328 118.572C59.7188 118.865 60.207 119.238 60.5996 119.693C60.9883 120.158 61.2754 120.697 61.4609 121.312C61.6348 121.926 61.6758 122.594 61.584 123.314C61.4922 124.037 61.2812 124.672 60.9492 125.221C60.6172 125.77 60.2051 126.215 59.7129 126.557C59.207 126.91 58.6406 127.154 58.0098 127.293C57.3691 127.432 56.6973 127.455 55.998 127.367C54.9531 127.234 54.0801 126.916 53.377 126.41C52.6738 125.916 52.1406 125.248 51.7773 124.402L53.459 123.697Z" fill="#FFFFFF" fill-opacity="1.000000" fill-rule="nonzero"/>
	<path id="o" d="M43.4141 119.549C43.6016 119.121 43.6992 118.707 43.707 118.309C43.707 117.904 43.6387 117.531 43.5039 117.188C43.3555 116.852 43.1406 116.543 42.8594 116.266C42.5723 115.998 42.2363 115.781 41.8477 115.611C41.459 115.441 41.0703 115.342 40.6797 115.314C40.2852 115.295 39.918 115.348 39.5801 115.473C39.2266 115.602 38.9062 115.807 38.6191 116.084C38.3223 116.355 38.0801 116.707 37.8926 117.135C37.7051 117.562 37.6133 117.979 37.6152 118.381C37.6055 118.779 37.6758 119.148 37.8242 119.486C37.959 119.83 38.168 120.135 38.4551 120.402C38.7363 120.68 39.0723 120.902 39.459 121.072C39.8477 121.242 40.2383 121.336 40.6328 121.354C41.0234 121.383 41.3965 121.332 41.748 121.203C42.0879 121.078 42.4062 120.879 42.7031 120.605C42.9902 120.328 43.2266 119.977 43.4141 119.549ZM36.0273 116.318C36.3105 115.672 36.6934 115.135 37.1777 114.707C37.6562 114.287 38.1875 113.98 38.7715 113.785C39.3535 113.59 39.9746 113.512 40.6328 113.551C41.2812 113.586 41.9199 113.74 42.5449 114.014C43.1719 114.289 43.7227 114.654 44.1992 115.111C44.6641 115.562 45.0234 116.07 45.2773 116.631C45.5293 117.191 45.6641 117.789 45.6816 118.426C45.6953 119.072 45.5625 119.717 45.2793 120.363C44.9961 121.012 44.6152 121.543 44.1367 121.961C43.6523 122.391 43.1191 122.701 42.5352 122.896C41.9531 123.092 41.3379 123.174 40.6895 123.139C40.0312 123.1 39.3887 122.943 38.7617 122.668C38.1348 122.395 37.5879 122.031 37.123 121.578C36.6465 121.121 36.2832 120.613 36.0293 120.053C35.7773 119.492 35.6445 118.889 35.6309 118.242C35.6133 117.607 35.7441 116.965 36.0273 116.318Z" fill="#FFFFFF" fill-opacity="1.000000" fill-rule="nonzero"/>
	<path id="n" d="M25.3398 114.656L25.1074 106.551L21.2129 111.191L19.666 109.893L25.457 102.994L26.9414 104.24L27.1641 112.359L31.0684 107.707L32.6035 108.994L26.8125 115.893L25.3398 114.656Z" fill="#FFFFFF" fill-opacity="1.000000" fill-rule="nonzero"/>
	<path id="t" d="M8.91211 96.2227L10.416 95.1914L12.4883 98.2148L18.4121 94.1543L19.5625 95.832L13.6387 99.8945L15.7109 102.916L14.207 103.947L8.91211 96.2227Z" fill="#FFFFFF" fill-opacity="1.000000" fill-rule="nonzero"/>
	<path id="a" d="M9.83594 84.2754L8.56836 80.4766L5.23633 83.3047L5.45898 83.9688L9.83594 84.2754ZM3.09961 82.6094L10.4297 76.1289L11.1113 78.168L10 79.1562L11.7578 84.4238L13.2402 84.5469L13.9316 86.6172L4.14648 85.7461L3.09961 82.6094Z" fill="#FFFFFF" fill-opacity="1.000000" fill-rule="nonzero"/>
	<path id="c" d="M3.37695 63.1953C2.90234 63.5605 2.54297 63.9863 2.29883 64.4727C2.05469 64.9492 1.94727 65.5449 1.97266 66.2598C1.98828 66.7168 2.07422 67.127 2.22852 67.4902C2.37109 67.8438 2.57812 68.1465 2.84766 68.3965C3.10742 68.6484 3.41797 68.8379 3.78125 68.9668C4.14453 69.0938 4.54883 69.1504 4.99219 69.1348C5.42773 69.1191 5.82031 69.0332 6.17383 68.8789C6.52539 68.7148 6.82812 68.498 7.07812 68.2285C7.31836 67.959 7.50391 67.6426 7.63086 67.2793C7.75977 66.9043 7.81445 66.4961 7.79883 66.0508C7.77344 65.334 7.62109 64.748 7.34375 64.291C7.06641 63.8223 6.67773 63.4238 6.17773 63.0938L7.03125 61.4824C7.83984 61.9219 8.46484 62.5117 8.9043 63.2578C9.33203 64.002 9.56641 64.9004 9.60352 65.9531C9.63086 66.6699 9.54492 67.3398 9.35156 67.9668C9.15625 68.5938 8.86523 69.1367 8.48047 69.5957C8.08398 70.0547 7.59766 70.4258 7.02148 70.707C6.44531 70.9785 5.79297 71.127 5.06641 71.1523C4.33789 71.1777 3.67773 71.0723 3.08203 70.832C2.48633 70.5938 1.98047 70.2578 1.5625 69.8281C1.13477 69.3867 0.800781 68.8672 0.5625 68.2676C0.322266 67.6562 0.189453 66.998 0.164062 66.293C0.126953 65.2402 0.300781 64.3281 0.685547 63.5527C1.05859 62.7793 1.63477 62.1445 2.41016 61.6504L3.37695 63.1953Z" fill="#FFFFFF" fill-opacity="1.000000" fill-rule="nonzero"/>
	<path id="t" d="M3.15625 44.6855L4.92969 45.1113L4.07422 48.6738L11.0586 50.3496L10.584 52.3281L3.59961 50.6543L2.74414 54.2168L0.970703 53.791L3.15625 44.6855Z" fill="#FFFFFF" fill-opacity="1.000000" fill-rule="nonzero"/>
	<path id="u" d="M12.2207 26.8145L15.8379 29.6699C16.5273 30.2148 17.2012 30.4844 17.8574 30.4766C18.5059 30.4629 19.1055 30.1055 19.6562 29.4062C20.207 28.709 20.416 28.043 20.2793 27.4082C20.1348 26.7695 19.7168 26.1758 19.0273 25.6309L15.4102 22.7754L16.6719 21.1777L20.2754 24.0234C20.8633 24.4883 21.3164 24.9844 21.6328 25.5098C21.9492 26.0371 22.1367 26.5801 22.1953 27.1367C22.2598 27.6855 22.1953 28.25 22 28.8301C21.8125 29.4004 21.5 29.9629 21.0625 30.5176C20.625 31.0703 20.1465 31.5098 19.6289 31.834C19.1172 32.1484 18.584 32.3438 18.0273 32.416C17.4785 32.4805 16.9102 32.4199 16.3242 32.2344C15.7383 32.0469 15.1523 31.7227 14.5625 31.2578L10.959 28.4121L12.2207 26.8145Z" fill="#FFFFFF" fill-opacity="1.000000" fill-rule="nonzero"/>
	<path id="s" d="M30.8027 12.6504C30.1562 12.6602 29.5586 12.7695 29.0117 12.9766C28.459 13.1738 27.8906 13.4805 27.3086 13.9004C26.9473 14.1602 26.668 14.3945 26.4707 14.6035C26.2734 14.8125 26.1348 15 26.0527 15.1641C25.9707 15.3301 25.9395 15.4805 25.9551 15.6152C25.9746 15.7363 26.0234 15.8477 26.0996 15.9531C26.25 16.166 26.4434 16.248 26.6777 16.1992C26.9043 16.1445 27.1719 16.0312 27.4785 15.8633L29.8535 14.5371C30.707 14.0684 31.4824 13.8457 32.1797 13.8652C32.877 13.8867 33.4688 14.2363 33.957 14.9141C34.2559 15.3281 34.416 15.7559 34.4375 16.1953C34.4609 16.6191 34.375 17.0547 34.1758 17.5059C33.9805 17.9395 33.6816 18.3691 33.2773 18.7949C32.8887 19.2207 32.4219 19.6309 31.875 20.0234C31.127 20.5625 30.3887 20.959 29.6621 21.2148C28.9453 21.4629 28.1406 21.5801 27.248 21.5664L27.1055 19.7246C27.8613 19.7148 28.5508 19.6133 29.1738 19.4199C29.7988 19.2109 30.416 18.8867 31.0234 18.4492C31.6055 18.0312 32.0312 17.6113 32.3027 17.1875C32.5742 16.7656 32.5996 16.4004 32.377 16.0918C32.2305 15.8887 32.0625 15.7832 31.8691 15.7754C31.6699 15.7578 31.4023 15.8438 31.0684 16.0293L28.4102 17.5215C27.5977 17.9727 26.8613 18.1934 26.2012 18.1875C25.543 18.166 24.9707 17.8164 24.4824 17.1367C24.2031 16.75 24.0508 16.3516 24.0234 15.9414C24.0059 15.5273 24.084 15.1152 24.2598 14.709C24.4355 14.3027 24.6934 13.9082 25.0352 13.5293C25.3809 13.1328 25.7871 12.7676 26.2539 12.4316C26.9414 11.9375 27.6387 11.5488 28.3457 11.2676C29.0527 10.9863 29.8438 10.8516 30.7207 10.8633L30.8027 12.6504Z" fill="#FFFFFF" fill-opacity="1.000000" fill-rule="nonzero"/>
	<path id="•" d="M49.0723 4.4707C49.3145 4.41016 49.5527 4.40234 49.7871 4.44531C50.0215 4.48828 50.2363 4.56836 50.4336 4.6875C50.6309 4.80664 50.8027 4.96094 50.9492 5.14844C51.0957 5.33594 51.1992 5.55078 51.2598 5.79297C51.3203 6.03516 51.3281 6.27344 51.2852 6.50781C51.2422 6.74219 51.1621 6.95703 51.043 7.1543C50.9238 7.35156 50.7695 7.52344 50.582 7.66992C50.3965 7.81836 50.1797 7.92188 49.9375 7.98047C49.6953 8.04102 49.457 8.04883 49.2227 8.00586C48.9883 7.96289 48.7734 7.88281 48.5762 7.76367C48.3789 7.64453 48.207 7.49219 48.0605 7.30469C47.9141 7.11719 47.8105 6.90234 47.75 6.66016C47.6895 6.41602 47.6816 6.17773 47.7246 5.94336C47.7676 5.71094 47.8477 5.49414 47.9668 5.29688C48.0859 5.09961 48.2402 4.92773 48.4258 4.78125C48.6133 4.63477 48.8281 4.53125 49.0723 4.4707Z" fill="#FDDD0A" fill-opacity="1.000000" fill-rule="nonzero"/>
	<path id="C" d="M75.3691 4.4043C75.0938 3.87109 74.7363 3.44336 74.3008 3.11914C73.873 2.79492 73.3066 2.58398 72.5957 2.48438C72.1445 2.42188 71.7266 2.43359 71.3418 2.52344C70.9688 2.60156 70.6348 2.75195 70.3398 2.97461C70.0488 3.18555 69.8066 3.45898 69.6172 3.79297C69.4277 4.12891 69.3027 4.51758 69.2402 4.95703C69.1797 5.38867 69.1953 5.78906 69.2852 6.16406C69.3848 6.54102 69.5469 6.875 69.7676 7.16992C69.9922 7.45312 70.2715 7.68945 70.6055 7.87891C70.9531 8.07031 71.3457 8.19727 71.7871 8.25781C72.4961 8.35742 73.0996 8.31055 73.5977 8.11914C74.1074 7.92578 74.5684 7.61328 74.9805 7.17773L76.418 8.30078C75.8457 9.01953 75.1543 9.53125 74.3438 9.83398C73.5352 10.127 72.6113 10.1992 71.5684 10.0527C70.8574 9.95312 70.2109 9.75391 69.6289 9.45312C69.0469 9.15234 68.5625 8.77148 68.1777 8.31055C67.7949 7.8418 67.5137 7.29688 67.3379 6.67969C67.1719 6.06445 67.1387 5.39648 67.2402 4.67773C67.3418 3.95703 67.5625 3.32422 67.9004 2.7793C68.2402 2.23633 68.6582 1.79492 69.1562 1.45898C69.6641 1.11328 70.2344 0.876953 70.8672 0.746094C71.5098 0.617188 72.1816 0.601562 72.8809 0.699219C73.9238 0.845703 74.791 1.17578 75.4863 1.68945C76.1836 2.19336 76.709 2.86914 77.0605 3.7207L75.3691 4.4043Z" fill="#FFFFFF" fill-opacity="1.000000" fill-rule="nonzero"/>
	<path id="o" d="M85.3594 8.68359C85.166 9.10742 85.0645 9.51953 85.0488 9.91992C85.0449 10.3223 85.1074 10.6973 85.2383 11.041C85.3828 11.3809 85.5938 11.6914 85.8711 11.9727C86.1543 12.2441 86.4883 12.4668 86.873 12.6406C87.2598 12.8164 87.6465 12.9199 88.0371 12.9531C88.4316 12.9785 88.7988 12.9297 89.1387 12.8105C89.4941 12.6855 89.8164 12.4844 90.1074 12.2109C90.4082 11.9434 90.6543 11.5957 90.8477 11.1699C91.041 10.7461 91.1387 10.3301 91.1426 9.92773C91.1562 9.5293 91.0918 9.16016 90.9473 8.82031C90.8184 8.47461 90.6113 8.16602 90.3301 7.89648C90.0508 7.61523 89.7188 7.38672 89.334 7.21289C88.9492 7.03711 88.5586 6.9375 88.1641 6.91406C87.7734 6.88086 87.4023 6.92578 87.0469 7.05078C86.707 7.17188 86.3848 7.36523 86.084 7.63477C85.7949 7.9082 85.5527 8.25781 85.3594 8.68359ZM92.7012 12.0117C92.4102 12.6543 92.0195 13.1855 91.5312 13.6074C91.0469 14.0195 90.5117 14.3203 89.9258 14.5078C89.3398 14.6953 88.7188 14.7656 88.0605 14.7168C87.4121 14.6738 86.7773 14.5117 86.1543 14.2285C85.5312 13.9453 84.9844 13.5742 84.5156 13.1094C84.0547 12.6523 83.7031 12.1406 83.459 11.5762C83.2129 11.0117 83.0859 10.4121 83.0762 9.77539C83.0703 9.12891 83.2148 8.48633 83.5059 7.8418C83.7969 7.19922 84.1855 6.67188 84.6699 6.25977C85.1582 5.83789 85.6953 5.5332 86.2812 5.3457C86.8672 5.1582 87.4844 5.08594 88.1328 5.12891C88.7891 5.17773 89.4297 5.34375 90.0527 5.625C90.6758 5.9082 91.2168 6.27734 91.6777 6.73633C92.1465 7.19922 92.5039 7.71289 92.75 8.27734C92.9941 8.8418 93.1191 9.44727 93.125 10.0918C93.1348 10.7285 92.9941 11.3672 92.7012 12.0117Z" fill="#FFFFFF" fill-opacity="1.000000" fill-rule="nonzero"/>
	<path id="n" d="M103.365 13.8164L103.49 21.9238L107.447 17.3359L108.977 18.6543L103.096 25.4746L101.627 24.209L101.512 16.0879L97.5449 20.6895L96.0273 19.3809L101.91 12.5605L103.365 13.8164Z" fill="#FFFFFF" fill-opacity="1.000000" fill-rule="nonzero"/>
	<path id="t" d="M119.547 32.4648L118.029 33.4766L115.998 30.4277L110.02 34.4082L108.893 32.7148L114.869 28.7324L112.838 25.6836L114.355 24.6719L119.547 32.4648Z" fill="#FFFFFF" fill-opacity="1.000000" fill-rule="nonzero"/>
	<path id="a" d="M118.465 44.4004L119.682 48.2168L123.051 45.4336L122.838 44.7656L118.465 44.4004ZM125.178 46.1562L117.762 52.5391L117.107 50.4922L118.232 49.5176L116.545 44.2266L115.064 44.084L114.4 42.0059L124.174 43.0059L125.178 46.1562Z" fill="#FFFFFF" fill-opacity="1.000000" fill-rule="nonzero"/>
	<path id="c" d="M124.645 65.5664C125.125 65.207 125.49 64.7871 125.738 64.3027C125.988 63.8301 126.105 63.2363 126.09 62.5195C126.078 62.0645 126 61.6523 125.85 61.2871C125.711 60.9316 125.51 60.627 125.242 60.373C124.986 60.1172 124.678 59.9238 124.316 59.791C123.955 59.6582 123.553 59.5957 123.107 59.6074C122.674 59.6172 122.279 59.6953 121.924 59.8457C121.568 60.0059 121.264 60.2188 121.01 60.4844C120.766 60.752 120.578 61.0645 120.445 61.4258C120.312 61.7988 120.25 62.207 120.26 62.6523C120.277 63.3691 120.42 63.957 120.691 64.418C120.963 64.8906 121.348 65.293 121.844 65.6309L120.967 67.2305C120.164 66.7812 119.549 66.1816 119.119 65.4316C118.699 64.6797 118.479 63.7793 118.455 62.7266C118.438 62.0098 118.531 61.3398 118.734 60.7148C118.938 60.0918 119.234 59.5527 119.627 59.0996C120.029 58.6445 120.52 58.2812 121.1 58.0078C121.68 57.7441 122.334 57.6035 123.062 57.5879C123.789 57.5703 124.449 57.6855 125.041 57.9336C125.633 58.1816 126.135 58.5215 126.547 58.959C126.969 59.4043 127.295 59.9297 127.527 60.5332C127.758 61.1465 127.881 61.8066 127.896 62.5117C127.922 63.5645 127.736 64.4746 127.34 65.2441C126.957 66.0137 126.373 66.6406 125.592 67.125L124.645 65.5664Z" fill="#FFFFFF" fill-opacity="1.000000" fill-rule="nonzero"/>
	<path id="t" d="M124.619 84.0762L122.85 83.627L123.752 80.0762L116.791 78.3066L117.293 76.334L124.254 78.1016L125.156 74.5508L126.924 75L124.619 84.0762Z" fill="#FFFFFF" fill-opacity="1.000000" fill-rule="nonzero"/>
	<path id="u" d="M115.316 101.826L111.738 98.9238C111.055 98.3691 110.385 98.0918 109.729 98.0898C109.082 98.0957 108.477 98.4434 107.916 99.1348C107.355 99.8262 107.139 100.49 107.268 101.125C107.402 101.768 107.812 102.365 108.496 102.92L112.074 105.822L110.791 107.404L107.225 104.51C106.645 104.039 106.197 103.537 105.889 103.006C105.578 102.475 105.398 101.93 105.348 101.371C105.289 100.822 105.363 100.258 105.564 99.6816C105.76 99.1133 106.08 98.5547 106.525 98.0078C106.971 97.459 107.453 97.0273 107.977 96.709C108.492 96.4004 109.029 96.2148 109.586 96.1484C110.135 96.0918 110.701 96.1602 111.285 96.3535C111.869 96.5469 112.451 96.8809 113.033 97.3516L116.6 100.246L115.316 101.826Z" fill="#FFFFFF" fill-opacity="1.000000" fill-rule="nonzero"/>
	<path id="s" d="M96.5469 115.74C97.1934 115.738 97.793 115.637 98.3418 115.439C98.8984 115.248 99.4688 114.947 100.057 114.537C100.422 114.283 100.703 114.051 100.904 113.846C101.104 113.639 101.246 113.453 101.33 113.289C101.414 113.125 101.447 112.975 101.434 112.84C101.416 112.719 101.369 112.605 101.295 112.5C101.145 112.285 100.953 112.201 100.719 112.246C100.492 112.299 100.223 112.406 99.9141 112.57L97.5215 113.867C96.6602 114.322 95.8828 114.535 95.1855 114.506C94.4883 114.477 93.9023 114.119 93.4219 113.434C93.1289 113.016 92.9766 112.588 92.959 112.148C92.9414 111.723 93.0332 111.287 93.2383 110.84C93.4395 110.408 93.7441 109.982 94.1543 109.564C94.5469 109.143 95.0215 108.738 95.5723 108.354C96.3281 107.824 97.0703 107.438 97.8008 107.191C98.5215 106.953 99.3281 106.846 100.219 106.871L100.338 108.717C99.582 108.715 98.8906 108.807 98.2656 108.994C97.6367 109.193 97.0176 109.51 96.4023 109.938C95.8164 110.35 95.3828 110.764 95.1074 111.184C94.8301 111.602 94.8008 111.967 95.0176 112.277C95.1621 112.482 95.3301 112.59 95.5234 112.602C95.7227 112.621 95.9902 112.539 96.3262 112.357L99.0039 110.9C99.8223 110.461 100.562 110.25 101.223 110.264C101.879 110.295 102.447 110.652 102.926 111.338C103.199 111.729 103.348 112.129 103.369 112.539C103.381 112.953 103.297 113.363 103.115 113.77C102.936 114.174 102.672 114.562 102.324 114.939C101.975 115.328 101.564 115.689 101.092 116.02C100.398 116.504 99.6973 116.883 98.9863 117.154C98.2754 117.426 97.4805 117.551 96.6035 117.529L96.5469 115.74Z" fill="#FFFFFF" fill-opacity="1.000000" fill-rule="nonzero"/>
	<path id="•" d="M78.1738 123.678C77.9297 123.734 77.6914 123.74 77.457 123.693C77.2246 123.648 77.0098 123.564 76.8145 123.441C76.6191 123.32 76.4492 123.166 76.3047 122.977C76.1602 122.787 76.0586 122.57 76.002 122.326C75.9453 122.084 75.9395 121.846 75.9863 121.611C76.0312 121.379 76.1152 121.164 76.2383 120.969C76.3594 120.771 76.5156 120.602 76.7051 120.459C76.8926 120.314 77.1094 120.213 77.3535 120.156C77.5957 120.1 77.834 120.094 78.0684 120.141C78.3027 120.186 78.5156 120.27 78.7129 120.393C78.9082 120.514 79.0781 120.668 79.2227 120.857C79.3672 121.047 79.4668 121.264 79.5234 121.508C79.5801 121.75 79.5859 121.988 79.5391 122.223C79.4941 122.455 79.4102 122.67 79.2891 122.865C79.166 123.062 79.0117 123.232 78.8223 123.377C78.6328 123.52 78.416 123.621 78.1738 123.678Z" fill="#FDDD0A" fill-opacity="1.000000" fill-rule="nonzero"/>
	<path id="Arrow_icon" d="M71.9492 54.7559L53.1504 54.7559L53.1504 53.127L74.7285 53.127L74.7285 74.7051L73.0996 74.7051L73.0996 55.9062L53.7266 75.2812L52.5742 74.1289L71.9492 54.7559Z" fill="#FDDD0A" fill-opacity="1.000000" fill-rule="evenodd"/>
</svg>
