<svg width="160.500000" height="160.500000" viewBox="0 0 160.5 160.5" fill="none" xmlns="http://www.w3.org/2000/svg" xmlns:xlink="http://www.w3.org/1999/xlink">
	<desc>
			Created with Pixso.
	</desc>
	<defs/>
	<path id="Element" d="M32.2324 21.3789L74.5254 32.1699L106.008 0.75L148.303 12.8105L159.75 55.0195L128.904 86.1211L140.033 128.648L108.553 159.75L66.2578 148.324L54.8105 106.115L12.5156 94.373L0.75 52.1641L32.2324 21.3789ZM74.5254 32.1699L86.293 74.6953M128.904 86.1211L86.293 74.6953L43.0449 63.2715M12.5156 94.373L43.0449 63.2715L32.2324 21.3789M54.8105 106.115L86.293 74.6953M159.75 55.0195L116.82 43.2773M106.008 0.75L116.82 43.2773L86.293 74.6953M140.033 128.648L97.4219 117.541L66.2578 148.324M97.4219 117.541L86.293 74.6953" stroke="#FDDD0A" stroke-opacity="1.000000" stroke-width="1.500000" stroke-linejoin="round"/>
</svg>
