<svg width="917.242188" height="939.496094" viewBox="0 0 917.242 939.496" fill="none" xmlns="http://www.w3.org/2000/svg" xmlns:xlink="http://www.w3.org/1999/xlink">
	<desc>
			Created with Pixso.
	</desc>
	<defs/>
	<path id="Ellipse 4" d="M777.184 470.766L776.537 471.578C679.658 593.387 675.131 599.08 648.25 713.502C621.309 828.177 432.238 875.892 353.143 752.477C328.215 713.578 293.77 681.719 259.795 650.293C185.973 582.012 114.365 515.775 147.375 383.836C195.58 191.17 320.529 262.363 532.064 177.32C743.598 92.2773 874.688 348.168 777.184 470.766ZM141.625 471.406Q136.59 431.064 148.346 384.078Q159.916 337.832 178.58 308.371Q192.289 286.73 211.32 271.943Q216.264 268.102 221.566 264.723Q243.779 250.568 277.783 241.438Q298.809 235.793 347.666 227.102Q402.014 217.434 432.795 209.959Q485.215 197.232 532.438 178.248Q590.412 154.939 643.221 163.5Q658.316 165.947 672.99 171Q690.312 176.963 705.836 186.01Q742.879 207.596 769.688 246.744Q776.611 256.852 782.371 267.582Q791.201 284.029 797.305 301.941Q807.357 331.453 808.766 361.281Q810.209 391.873 802.361 419.193Q795.76 442.166 783.064 461.041Q779.92 465.717 776.4 470.143L775.754 470.955Q733.09 524.596 718.6 544.08Q696.693 573.531 685.264 594.838Q673.598 616.582 665.057 644.264Q658.492 665.527 647.275 713.273Q644.607 724.631 639.957 735.107Q627.604 762.934 601.262 784.552Q591.455 792.6 580.686 799.037Q553.459 815.311 520.078 821.288Q485.713 827.441 453.982 820.871Q441.377 818.262 429.188 813.644Q409.709 806.264 393.479 794.431Q370.471 777.657 353.984 751.938Q337.324 725.939 310.584 697.893Q294.592 681.117 260.473 649.559Q223.732 615.574 207.176 597.727Q179.686 568.09 164.398 540.451Q150.217 514.812 144.332 487.391Q142.633 479.473 141.625 471.406Z" fill="#212121" fill-opacity="1.000000" fill-rule="evenodd"/>
	<path id="Ellipse 5" d="M764.18 470.723L763.561 471.502C670.637 588.34 666.293 593.801 640.508 703.553C614.668 813.547 433.314 859.315 357.447 740.938C333.535 703.627 300.496 673.066 267.908 642.924C197.1 577.428 128.414 513.896 160.078 387.342C206.314 202.539 326.164 270.826 529.064 189.256C731.967 107.684 857.705 353.131 764.18 470.723ZM154.604 471.332Q149.773 432.645 161.047 387.584L161.047 387.584Q172.145 343.23 190.043 314.979Q203.189 294.225 221.443 280.043Q226.18 276.363 231.262 273.125Q252.562 259.551 285.174 250.795Q305.338 245.381 352.201 237.045Q404.33 227.771 433.857 220.602Q484.141 208.393 529.438 190.184Q585.041 167.828 635.688 176.041Q650.16 178.389 664.227 183.23Q680.832 188.947 695.715 197.619Q731.244 218.32 756.957 255.867Q763.58 265.539 769.096 275.807Q777.58 291.6 783.441 308.803Q793.084 337.105 794.434 365.711Q795.818 395.047 788.291 421.244Q781.961 443.273 769.787 461.373Q766.771 465.857 763.398 470.102L762.777 470.881Q721.855 522.334 707.955 541.021Q686.939 569.273 675.977 589.713Q664.785 610.574 656.59 637.129Q650.295 657.525 639.535 703.324Q636.977 714.209 632.52 724.252Q620.674 750.939 595.412 771.672Q586.016 779.384 575.695 785.554Q549.582 801.166 517.561 806.9Q484.602 812.803 454.172 806.5Q442.088 803.997 430.402 799.569Q411.723 792.492 396.156 781.144Q374.096 765.061 358.289 740.396Q342.305 715.457 316.654 688.553Q301.312 672.459 268.586 642.189Q233.346 609.594 217.467 592.475Q191.102 564.051 176.441 537.545Q162.854 512.982 157.209 486.711Q155.572 479.094 154.604 471.332Z" fill="#212121" fill-opacity="1.000000" fill-rule="evenodd"/>
	<path id="Ellipse 6" d="M750.377 470.68L749.785 471.424C661.059 582.982 656.912 588.195 632.291 692.988C607.617 798.014 434.459 841.714 362.02 728.684C339.188 693.059 307.643 663.881 276.525 635.1C208.916 572.562 143.334 511.902 173.566 391.064C217.715 214.611 332.148 279.814 525.883 201.928C719.617 124.041 839.676 358.398 750.377 470.68ZM168.385 471.254Q163.773 434.324 174.537 391.307L174.537 391.307Q185.131 348.965 202.217 321.994Q214.768 302.184 232.191 288.646Q236.711 285.135 241.559 282.047Q261.893 269.09 293.021 260.73Q312.271 255.562 357.018 247.602Q406.799 238.746 434.988 231.902Q483.004 220.244 526.256 202.855Q579.342 181.514 627.693 189.357Q641.502 191.598 654.924 196.219Q670.766 201.672 684.965 209.943Q718.891 229.705 743.441 265.557Q749.77 274.795 755.037 284.604Q763.131 299.674 768.725 316.088Q777.928 343.105 779.217 370.412Q781.287 414.273 763.848 448.064Q757.867 459.652 749.594 470.057L749.002 470.801Q709.922 519.939 696.654 537.773Q676.588 564.752 666.117 584.27Q655.43 604.193 647.604 629.553Q641.592 649.031 631.318 692.76Q628.877 703.15 624.623 712.734Q613.316 738.207 589.205 757.996Q580.236 765.355 570.387 771.246Q545.457 786.149 514.891 791.623Q483.428 797.257 454.377 791.239Q442.846 788.851 431.693 784.625Q413.859 777.867 398.998 767.031Q377.945 751.68 362.861 728.145Q347.598 704.33 323.104 678.635Q308.453 663.27 277.205 634.365Q243.559 603.242 228.396 586.898Q203.227 559.764 189.23 534.461Q176.254 511.002 170.867 485.916Q169.309 478.654 168.385 471.254Z" fill="#212121" fill-opacity="1.000000" fill-rule="evenodd"/>
	<path id="Ellipse 7" d="M736.004 470.633L735.441 471.342C651.086 577.404 647.145 582.361 623.736 681.992C600.279 781.844 435.648 823.392 366.777 715.93C345.07 682.061 315.08 654.318 285.496 626.955C221.217 567.498 158.865 509.826 187.609 394.939C229.582 227.18 338.379 289.17 522.57 215.121C706.762 141.07 820.906 363.885 736.004 470.633ZM189.453 500.902Q174.176 452.752 188.578 395.184L188.578 395.184Q198.648 354.936 214.889 329.299Q226.816 310.471 243.377 297.605Q247.672 294.27 252.277 291.334Q271.604 279.02 301.193 271.074Q319.49 266.162 362.031 258.594Q409.363 250.174 436.164 243.666Q481.816 232.582 522.943 216.049Q573.406 195.762 619.365 203.219Q632.484 205.35 645.238 209.738Q660.303 214.924 673.803 222.791Q706.041 241.574 729.371 275.643Q748.791 303.998 757.193 335.309Q762.406 354.74 763.375 375.309Q765.344 416.998 748.768 449.115Q743.084 460.125 735.223 470.012L734.658 470.719Q697.502 517.438 684.891 534.393Q665.805 560.049 655.852 578.605Q645.691 597.551 638.248 621.666Q632.529 640.195 622.764 681.764Q620.447 691.625 616.41 700.725Q605.666 724.943 582.742 743.76Q574.215 750.758 564.852 756.355Q541.16 770.52 512.111 775.719Q482.209 781.074 454.6 775.355Q443.639 773.086 433.039 769.068Q416.094 762.648 401.973 752.354Q381.959 737.764 367.619 715.391Q353.104 692.74 329.814 668.312Q315.885 653.701 286.174 626.221Q254.188 596.631 239.773 581.096Q215.848 555.301 202.543 531.25Q194.426 516.574 189.453 500.902Z" fill="#212121" fill-opacity="1.000000" fill-rule="evenodd"/>
	<path id="Ellipse 8" d="M722.135 470.588L721.602 471.26C641.463 572.021 637.717 576.73 615.48 671.381C593.195 766.24 436.797 805.71 371.367 703.621C350.746 671.443 322.254 645.09 294.15 619.094C233.084 562.611 173.85 507.82 201.156 398.68C241.031 239.307 344.389 298.197 519.371 227.85C694.354 157.502 802.791 369.176 722.135 470.588ZM202.957 499.324Q188.447 453.594 202.127 398.922L202.127 398.922Q211.691 360.693 227.115 336.348Q238.445 318.459 254.18 306.24Q258.252 303.078 262.619 300.295Q280.973 288.6 309.074 281.055Q326.457 276.389 366.869 269.199Q411.834 261.199 437.297 255.018Q480.672 244.486 519.744 228.777Q567.672 209.51 611.322 216.594Q623.781 218.615 635.891 222.785Q650.184 227.705 662.996 235.166Q693.625 253.006 715.793 285.375Q734.234 312.301 742.213 342.037Q747.166 360.492 748.088 380.031Q749.957 419.631 734.209 450.133Q728.814 460.584 721.354 469.965L720.818 470.639Q685.508 515.033 673.535 531.131Q655.402 555.512 645.945 573.139Q636.291 591.143 629.219 614.055Q623.783 631.66 614.508 671.15Q612.309 680.508 608.48 689.143Q598.279 712.148 576.502 730.02Q568.414 736.658 559.531 741.969Q537.025 755.43 509.426 760.371Q481.02 765.459 454.793 760.023Q444.393 757.867 434.334 754.057Q418.248 747.963 404.844 738.191Q385.832 724.334 372.211 703.08Q358.418 681.561 336.289 658.35Q323.055 644.467 294.828 618.359Q264.441 590.254 250.75 575.494Q228.023 550.992 215.389 528.148Q207.68 514.211 202.957 499.324Z" fill="#212121" fill-opacity="1.000000" fill-rule="evenodd"/>
	<path id="Ellipse 9" d="M707.725 470.543L707.221 471.178C631.465 566.428 627.924 570.881 606.904 660.354C585.836 750.025 437.99 787.338 376.141 690.832C356.646 660.414 329.713 635.502 303.145 610.928C245.42 557.533 189.424 505.74 215.238 402.566C252.932 251.91 350.637 307.58 516.051 241.08C681.463 174.578 783.971 374.676 707.725 470.543ZM216.994 497.703Q203.279 454.484 216.207 402.809Q225.246 366.682 239.822 343.672Q250.529 326.77 265.398 315.225Q269.244 312.236 273.369 309.609Q290.711 298.559 317.268 291.428Q333.697 287.018 371.896 280.221Q414.404 272.658 438.477 266.814Q479.482 256.857 516.424 242.008Q561.725 223.795 602.979 230.494Q614.744 232.406 626.18 236.342Q639.689 240.992 651.801 248.047Q680.74 264.904 701.686 295.488Q719.109 320.934 726.65 349.029Q731.332 366.475 732.205 384.941Q733.971 422.361 719.088 451.186Q713.992 461.057 706.943 469.92L706.438 470.557Q673.057 512.525 661.74 527.742Q644.596 550.793 635.654 567.459Q626.525 584.482 619.838 606.148Q614.701 622.791 605.93 660.125Q603.854 668.961 600.24 677.113Q590.602 698.854 570.021 715.744Q562.389 722.012 554.006 727.025Q532.732 739.754 506.639 744.426Q479.791 749.234 455.006 744.094Q445.182 742.059 435.682 738.459Q420.48 732.699 407.812 723.465Q389.852 710.371 376.982 690.293Q363.943 669.947 343.02 647.998Q330.508 634.875 303.824 610.193Q275.1 583.625 262.16 569.674Q240.68 546.518 228.738 524.93Q221.457 511.764 216.994 497.703Z" fill="#212121" fill-opacity="1.000000" fill-rule="evenodd"/>
	<path id="Ellipse 10" d="M694.178 470.498L693.699 471.1C622.064 561.17 618.717 565.379 598.84 649.986C578.918 734.781 439.113 770.064 380.627 678.807C362.193 650.043 336.725 626.486 311.602 603.248C257.016 552.758 204.064 503.781 228.475 406.219C264.119 263.756 356.51 316.398 512.928 253.516C669.344 190.631 766.275 379.846 694.178 470.498ZM230.193 496.184Q217.221 455.322 229.445 406.461Q237.99 372.307 251.768 350.557Q261.891 334.58 275.943 323.668Q279.576 320.846 283.473 318.363Q299.865 307.918 324.971 301.178Q340.502 297.008 376.623 290.58Q416.82 283.43 439.586 277.902Q478.365 268.486 513.301 254.443Q556.125 237.225 595.125 243.561Q606.242 245.367 617.049 249.088Q629.809 253.48 641.248 260.141Q668.615 276.076 688.42 304.996Q704.895 329.051 712.023 355.613Q716.447 372.102 717.271 389.555Q718.941 424.93 704.871 452.176Q700.057 461.502 693.395 469.877L692.918 470.477Q661.352 510.164 650.65 524.555Q634.434 546.354 625.979 562.119Q617.342 578.221 611.018 598.713Q606.16 614.453 597.865 649.758Q595.904 658.105 592.49 665.809Q583.383 686.357 563.93 702.322Q556.701 708.256 548.762 713.002Q528.664 725.02 504.02 729.432Q478.609 733.98 455.158 729.107Q445.9 727.184 436.949 723.791Q422.574 718.346 410.598 709.611Q393.627 697.238 381.469 678.268Q369.137 659.023 349.346 638.266Q337.514 625.854 312.279 602.514Q285.121 577.393 272.885 564.201Q252.578 542.311 241.289 521.9Q234.41 509.465 230.193 496.184Z" fill="#212121" fill-opacity="1.000000" fill-rule="evenodd"/>
	<path id="Ellipse 11" d="M681.402 470.459L680.951 471.027C613.201 556.213 610.033 560.195 591.234 640.213C572.395 720.41 440.17 753.779 384.855 667.471C367.422 640.268 343.334 617.986 319.574 596.01C267.947 548.258 217.869 501.938 240.955 409.666C274.666 274.928 362.047 324.717 509.982 265.242C657.916 205.77 749.592 384.723 681.402 470.459ZM242.635 494.74Q230.367 456.107 241.926 409.908Q250.006 377.613 263.031 357.051Q272.602 341.945 285.889 331.631Q289.32 328.965 293 326.619Q308.496 316.746 332.232 310.373Q346.918 306.43 381.078 300.352Q419.1 293.588 440.631 288.361Q477.311 279.455 510.355 266.17Q550.85 249.891 587.725 255.885Q598.23 257.592 608.439 261.105Q620.504 265.26 631.318 271.557Q657.189 286.621 675.914 313.963Q691.49 336.707 698.229 361.822Q702.412 377.408 703.189 393.908Q704.77 427.355 691.463 453.115Q686.912 461.926 680.621 469.836L680.168 470.406Q650.316 507.939 640.191 521.551Q624.855 542.172 616.855 557.086Q608.686 572.318 602.701 591.705Q598.105 606.594 590.262 639.984Q588.408 647.871 585.184 655.15Q576.574 674.578 558.184 689.67Q551.354 695.275 543.854 699.762Q524.852 711.125 501.547 715.297Q477.527 719.598 455.359 714.992Q446.607 713.172 438.143 709.967Q424.553 704.816 413.229 696.557Q397.189 684.861 385.697 666.932Q374.031 648.727 355.311 629.09Q344.119 617.35 320.252 595.275Q294.568 571.518 282.996 559.043Q263.797 538.344 253.123 519.049Q246.621 507.293 242.635 494.74Z" fill="#212121" fill-opacity="1.000000" fill-rule="evenodd"/>
	<path id="Ellipse 12" d="M669.762 470.422L669.334 470.961C605.123 551.695 602.121 555.469 584.305 631.307C566.449 707.312 441.135 738.938 388.711 657.139C372.188 631.357 349.357 610.24 326.84 589.412C277.912 544.154 230.449 500.254 252.33 412.805C284.279 285.109 367.094 332.295 507.299 275.93C647.502 219.562 734.387 389.166 669.762 470.422ZM253.973 493.426Q242.348 456.822 253.299 413.049Q260.955 382.449 273.297 362.969Q282.363 348.656 294.953 338.883Q298.201 336.361 301.684 334.143Q316.361 324.789 338.85 318.752Q352.768 315.014 385.141 309.256Q421.174 302.844 441.582 297.889Q476.35 289.449 507.672 276.857Q546.045 261.43 580.984 267.113Q590.928 268.73 600.594 272.059Q612.016 275.99 622.258 281.953Q646.773 296.225 664.516 322.133Q679.277 343.686 685.66 367.486Q689.621 382.248 690.357 397.873Q691.854 429.564 679.246 453.969Q674.936 462.311 668.979 469.799L668.551 470.338Q640.258 505.912 630.662 518.812Q616.125 538.359 608.541 552.496Q600.795 566.938 595.123 585.316Q590.766 599.428 583.332 631.078Q581.578 638.543 578.525 645.434Q570.371 663.838 552.947 678.137Q546.477 683.449 539.369 687.699Q521.369 698.463 499.295 702.416Q476.539 706.488 455.537 702.125Q447.248 700.402 439.232 697.365Q426.359 692.486 415.635 684.666Q400.439 673.586 389.553 656.6Q378.492 639.342 360.748 620.729Q350.139 609.6 327.518 588.678Q303.178 566.164 292.213 554.342Q274.02 534.729 263.906 516.447Q257.748 505.314 253.973 493.426Z" fill="#212121" fill-opacity="1.000000" fill-rule="evenodd"/>
	<path id="Ellipse 13" d="M656.883 470.381L656.482 470.887C596.188 546.697 593.369 550.24 576.639 621.453C559.871 692.824 442.199 722.52 392.973 645.711C377.459 621.502 356.021 601.672 334.875 582.113C288.932 539.617 244.365 498.395 264.91 416.277C294.91 296.369 372.676 340.678 504.328 287.75C635.982 234.822 717.568 394.08 656.883 470.381ZM266.514 491.973Q255.598 457.613 265.879 416.521Q273.066 387.797 284.648 369.514Q293.158 356.08 304.977 346.908Q308.021 344.545 311.287 342.465Q325.062 333.686 346.17 328.02Q359.236 324.512 389.631 319.104Q423.471 313.084 442.635 308.43Q475.287 300.502 504.701 288.678Q540.721 274.197 573.518 279.533Q582.846 281.051 591.914 284.172Q602.633 287.861 612.242 293.457Q635.254 306.852 651.908 331.17Q665.762 351.398 671.754 373.738Q675.471 387.594 676.162 402.26Q677.566 432.006 665.73 454.912Q661.688 462.734 656.102 469.758L655.699 470.264Q629.129 503.67 620.119 515.783Q606.467 534.141 599.342 547.422Q592.066 560.986 586.738 578.25Q582.646 591.504 575.666 621.225Q574.02 628.227 571.158 634.688Q563.506 651.961 547.156 665.381Q541.088 670.361 534.424 674.346Q517.525 684.453 496.803 688.164Q475.439 691.99 455.725 687.891Q447.951 686.273 440.436 683.426Q428.359 678.85 418.297 671.514Q404.035 661.115 393.814 645.17Q383.426 628.961 366.76 611.479Q356.797 601.027 335.555 581.379Q312.701 560.24 302.404 549.141Q285.326 530.73 275.834 513.568Q270.057 503.125 266.514 491.973Z" fill="#212121" fill-opacity="1.000000" fill-rule="evenodd"/>
	<path id="Ellipse 14" d="M642.562 470.336L642.189 470.805C586.25 541.139 583.637 544.426 568.115 610.494C552.559 676.711 443.387 704.262 397.715 633C383.32 610.539 363.432 592.143 343.814 573.998C301.188 534.57 259.84 496.324 278.902 420.141C306.736 308.893 378.883 350 501.027 300.895C623.17 251.789 698.863 399.545 642.562 470.336ZM280.463 490.354Q270.336 458.492 279.871 420.383Q286.537 393.746 297.277 376.791Q305.168 364.334 316.127 355.83Q318.945 353.645 321.967 351.719Q334.738 343.58 354.311 338.326Q366.43 335.072 394.627 330.055Q426.025 324.469 443.807 320.152Q474.105 312.795 501.4 301.822Q534.803 288.395 565.213 293.344Q573.859 294.752 582.264 297.645Q592.195 301.064 601.1 306.246Q622.441 318.668 637.887 341.219Q650.734 359.979 656.291 380.693Q659.736 393.539 660.377 407.137Q661.68 434.723 650.701 455.959Q646.957 463.205 641.781 469.713L641.406 470.182Q616.758 501.174 608.396 512.416Q595.725 529.451 589.115 541.777Q582.359 554.369 577.414 570.391Q573.619 582.689 567.141 610.266Q565.617 616.75 562.969 622.734Q555.877 638.75 540.715 651.193Q535.092 655.809 528.918 659.504Q513.248 668.877 494.031 672.316Q474.223 675.863 455.943 672.062Q448.74 670.562 441.773 667.924Q430.58 663.682 421.252 656.881Q408.029 647.242 398.557 632.461Q388.916 617.416 373.447 601.191Q364.201 591.492 344.492 573.264Q323.291 553.652 313.742 543.357Q297.902 526.281 289.1 510.369Q283.746 500.689 280.463 490.354Z" fill="#212121" fill-opacity="1.000000" fill-rule="evenodd"/>
	<path id="Ellipse 15" d="M628.553 470.291L628.209 470.725C576.529 535.701 574.115 538.738 559.775 599.775C545.404 660.947 444.547 686.4 402.355 620.566C389.057 599.816 370.684 582.82 352.559 566.057C313.18 529.633 274.982 494.301 292.592 423.92C318.305 321.145 384.957 359.121 497.797 313.758C610.637 268.393 680.564 404.893 628.553 470.291ZM294.109 488.775Q284.756 459.355 293.561 424.162Q305.059 378.207 332.418 360.773Q344.205 353.262 362.275 348.41Q373.469 345.404 399.516 340.771Q428.523 335.609 444.953 331.621Q472.949 324.824 498.17 314.686Q529.018 302.283 557.098 306.859Q565.07 308.158 572.82 310.826Q581.984 313.98 590.201 318.762Q609.908 330.229 624.17 351.053Q636.031 368.375 641.162 387.502Q644.342 399.359 644.934 411.91Q646.137 437.379 635.998 456.984Q632.543 463.668 627.77 469.668L627.426 470.102Q604.652 498.734 596.928 509.121Q585.219 524.863 579.107 536.254Q572.865 547.895 568.295 562.703Q564.787 574.066 558.801 599.547Q557.396 605.523 554.955 611.043Q548.41 625.828 534.414 637.314Q529.225 641.574 523.527 644.984Q509.062 653.637 491.322 656.812Q473.033 660.088 456.156 656.576Q449.512 655.193 443.084 652.758Q432.754 648.844 424.145 642.566Q411.941 633.67 403.197 620.025Q394.285 606.121 379.99 591.127Q371.447 582.166 353.238 565.322Q333.652 547.209 324.832 537.699Q310.207 521.932 302.08 507.238Q297.141 498.311 294.109 488.775Z" fill="#212121" fill-opacity="1.000000" fill-rule="evenodd"/>
	<path id="Ellipse 16" d="M614.49 470.246L614.174 470.645C566.771 530.244 564.557 533.029 551.404 589.016C538.223 645.125 445.711 668.471 407.012 608.086C394.812 589.053 377.959 573.465 361.336 558.088C325.215 524.678 290.178 492.27 306.33 427.713C329.916 333.443 391.053 368.277 494.555 326.666C598.057 285.055 662.199 410.26 614.49 470.246ZM307.807 487.189Q299.229 460.221 307.301 427.955Q317.838 385.836 342.906 369.861Q353.707 362.979 370.27 358.531Q380.533 355.775 404.42 351.525Q431.031 346.791 446.104 343.133Q471.789 336.896 494.928 327.594Q523.209 316.225 548.949 320.424Q556.248 321.613 563.344 324.057Q571.738 326.945 579.266 331.324Q597.33 341.834 610.402 360.922Q621.277 376.803 625.979 394.338Q628.891 405.201 629.434 416.701Q630.535 440.049 621.24 458.016Q618.076 464.131 613.707 469.623L613.391 470.021Q592.5 496.287 585.416 505.812Q574.672 520.258 569.064 530.713Q563.334 541.395 559.139 554.986Q555.922 565.414 550.43 588.787Q549.145 594.258 546.91 599.307Q540.916 612.857 528.09 623.385Q523.336 627.285 518.117 630.408Q504.861 638.34 488.602 641.252Q471.836 644.254 456.367 641.033Q450.283 639.766 444.4 637.537Q434.938 633.951 427.053 628.203Q415.867 620.051 407.854 607.545Q399.674 594.785 386.557 581.025Q378.719 572.805 362.016 557.354Q344.053 540.74 335.965 532.02Q322.557 517.564 315.105 504.096Q310.584 495.92 307.807 487.189Z" fill="#212121" fill-opacity="1.000000" fill-rule="evenodd"/>
	<path id="Ellipse 17" d="M600.428 470.199L600.141 470.561C557.016 524.785 555 527.318 543.033 578.254C531.041 629.301 446.877 650.541 411.666 595.604C400.57 578.287 385.236 564.105 370.113 550.117C337.252 519.721 305.375 490.236 320.07 431.502C341.527 345.738 397.148 377.43 491.312 339.572C585.479 301.717 643.832 415.625 600.428 470.199ZM321.502 485.598Q313.699 461.082 321.039 431.746Q330.619 393.461 353.395 378.947Q363.209 372.693 378.264 368.65Q387.598 366.145 409.326 362.279Q433.539 357.973 447.254 354.641Q470.629 348.967 491.686 340.502Q517.398 330.164 540.799 333.984Q547.426 335.066 553.865 337.283Q561.49 339.908 568.328 343.887Q584.75 353.438 596.633 370.791Q606.521 385.227 610.795 401.17Q613.439 411.041 613.934 421.49Q614.934 442.713 606.482 459.043Q603.609 464.594 599.645 469.578L599.357 469.939Q580.352 493.834 573.904 502.504Q564.125 515.65 559.021 525.168Q553.803 534.895 549.984 547.27Q547.057 556.754 542.059 578.025Q540.895 582.988 538.867 587.57Q533.422 599.885 521.764 609.453Q517.451 612.992 512.717 615.826Q500.666 623.041 485.881 625.688Q470.639 628.418 456.578 625.486Q451.055 624.336 445.715 622.312Q437.121 619.057 429.959 613.838Q419.793 606.428 412.51 595.064Q405.064 583.447 393.123 570.922Q385.99 563.439 370.791 549.383Q354.451 534.27 347.098 526.34Q334.904 513.195 328.133 500.951Q324.025 493.527 321.502 485.598Z" fill="#212121" fill-opacity="1.000000" fill-rule="evenodd"/>
	<path id="Ellipse 18" d="M587.604 470.16L587.342 470.488C548.117 519.807 546.283 522.113 535.398 568.439C524.49 614.871 447.939 634.189 415.914 584.221C405.822 568.471 391.875 555.572 378.119 542.848C348.23 515.201 319.236 488.385 332.602 434.963C352.119 356.955 402.709 385.781 488.357 351.348C574.004 316.916 627.082 420.521 587.604 470.16ZM333.996 484.152Q326.9 461.871 333.572 435.205L333.572 435.205Q342.275 400.418 362.961 387.238Q371.877 381.557 385.557 377.883Q394.043 375.605 413.803 372.09Q435.826 368.172 448.305 365.143Q469.572 359.979 488.73 352.275Q512.102 342.881 533.367 346.357Q539.379 347.34 545.223 349.352Q552.145 351.734 558.352 355.344Q573.277 364.021 584.076 379.793Q593.062 392.912 596.945 407.4Q599.348 416.369 599.795 425.859Q600.707 445.146 593.023 459.982Q590.416 465.016 586.82 469.537L586.559 469.867Q569.275 491.596 563.406 499.488Q554.508 511.449 549.861 520.113Q545.111 528.969 541.635 540.23Q538.973 548.861 534.426 568.211Q533.369 572.711 531.533 576.867Q526.588 588.055 515.996 596.748Q512.082 599.961 507.785 602.533Q496.836 609.09 483.4 611.496Q469.549 613.977 456.771 611.311Q451.76 610.266 446.916 608.43Q439.111 605.473 432.605 600.732Q423.373 594.004 416.756 583.682Q409.98 573.107 399.115 561.711Q392.623 554.902 378.799 542.113Q363.939 528.369 357.252 521.16Q346.17 509.213 340.016 498.088Q336.287 491.348 333.996 484.152Z" fill="#212121" fill-opacity="1.000000" fill-rule="evenodd"/>
	<path id="Ellipse 19" d="M572.91 470.113L572.68 470.404C537.922 514.105 536.297 516.148 526.652 557.199C516.988 598.342 449.154 615.459 420.777 571.182C411.834 557.227 399.477 545.797 387.287 534.521C360.803 510.023 335.111 486.262 346.955 438.924C364.25 369.803 409.076 395.344 484.969 364.834C560.861 334.322 607.893 426.129 572.91 470.113ZM348.305 482.494Q342.02 462.773 347.926 439.168Q355.627 408.387 373.916 396.732Q381.803 391.707 393.908 388.457Q401.422 386.438 418.926 383.324Q438.445 379.852 449.506 377.166Q468.357 372.59 485.342 365.762Q506.033 357.443 524.857 360.527Q530.162 361.396 535.32 363.172Q541.436 365.277 546.922 368.465Q560.133 376.143 569.693 390.102Q577.645 401.715 581.08 414.537Q583.205 422.469 583.602 430.863Q584.406 447.932 577.604 461.057Q575.303 465.5 572.129 469.49L571.896 469.781Q545.367 503.139 539.367 514.322Q535.154 522.18 532.07 532.17Q529.709 539.82 525.68 556.971Q524.746 560.939 523.129 564.607Q518.758 574.504 509.389 582.193Q505.936 585.029 502.143 587.301Q492.451 593.109 480.557 595.238Q468.303 597.432 456.998 595.074Q452.57 594.15 448.287 592.527Q441.393 589.914 435.643 585.727Q427.473 579.775 421.619 570.643Q415.609 561.264 405.973 551.156Q400.219 545.121 387.967 533.787Q374.803 521.611 368.879 515.227Q359.07 504.65 353.623 494.803Q350.33 488.85 348.305 482.494Z" fill="#212121" fill-opacity="1.000000" fill-rule="evenodd"/>
	<path id="Ellipse 20" d="M557.16 470.062L556.959 470.312C526.992 507.992 525.592 509.752 517.277 545.146C508.943 580.617 450.459 595.377 425.994 557.201C418.283 545.17 407.629 535.314 397.119 525.594C374.283 504.473 352.135 483.984 362.346 443.172C377.256 383.576 415.904 405.598 481.338 379.293C546.771 352.986 587.32 432.141 557.16 470.062ZM363.646 480.719Q358.229 463.742 363.314 443.416Q369.941 416.93 385.664 406.91Q392.445 402.59 402.861 399.793Q409.336 398.055 424.42 395.371Q459.588 389.115 481.711 380.221Q499.525 373.059 515.729 375.719Q520.279 376.467 524.705 377.99Q529.957 379.799 534.668 382.535Q546.041 389.141 554.271 401.156Q561.117 411.152 564.072 422.191Q565.898 429.012 566.238 436.229Q566.932 450.92 561.074 462.211Q559.098 466.018 556.377 469.439L556.176 469.691Q533.295 498.459 528.117 508.113Q522.48 518.623 516.303 544.918Q515.504 548.316 514.119 551.459Q510.365 559.975 502.305 566.59Q499.34 569.023 496.086 570.975Q487.746 575.975 477.508 577.807Q466.963 579.695 457.234 577.662Q453.436 576.869 449.76 575.477Q443.836 573.232 438.898 569.635Q431.869 564.518 426.836 556.662Q419.055 544.521 397.797 524.859Q386.451 514.365 381.35 508.865Q372.902 499.758 368.215 491.283Q365.389 486.174 363.646 480.719Z" fill="#212121" fill-opacity="1.000000" fill-rule="evenodd"/>
	<path id="Ellipse 21" d="M541.654 470.014L541.486 470.225C516.234 501.975 515.055 503.459 508.047 533.283C501.025 563.174 451.744 575.609 431.127 543.441C424.629 533.303 415.652 524.998 406.795 516.807C387.555 499.01 368.889 481.744 377.494 447.354C390.059 397.135 422.627 415.691 477.764 393.525C532.9 371.359 567.07 438.057 541.654 470.014ZM378.748 478.967Q374.186 464.695 378.463 447.598Q384.031 425.34 397.229 416.932Q402.922 413.303 411.676 410.951Q417.125 409.488 429.83 407.229Q459.479 401.953 478.137 394.453Q493.121 388.43 506.742 390.674Q510.553 391.303 514.256 392.576Q518.656 394.092 522.607 396.385Q532.172 401.934 539.092 412.039Q544.848 420.443 547.33 429.723Q548.863 435.449 549.148 441.51Q549.73 453.859 544.803 463.346Q543.148 466.529 540.873 469.391L540.703 469.602Q521.414 493.855 517.043 502.004Q512.285 510.877 507.074 533.055Q506.406 535.895 505.252 538.52Q502.104 545.674 495.332 551.23Q492.85 553.268 490.125 554.902Q483.117 559.109 474.51 560.65Q465.645 562.236 457.471 560.525Q454.289 559.859 451.211 558.693Q446.244 556.812 442.102 553.797Q436.197 549.5 431.969 542.902Q425.402 532.654 407.475 516.072Q388.496 498.518 382.578 487.818Q380.209 483.537 378.748 478.967Z" fill="#212121" fill-opacity="1.000000" fill-rule="evenodd"/>
</svg>
