<svg width="55.376953" height="49.500000" viewBox="0 0 55.377 49.5" fill="none" xmlns="http://www.w3.org/2000/svg" xmlns:xlink="http://www.w3.org/1999/xlink">
	<desc>
			Created with Pixso.
	</desc>
	<defs/>
	<path id="Vector 6" d="M50.627 0.75C52.8359 0.75 54.627 2.54102 54.627 4.75L54.627 29.6484L54.627 33.9746C54.627 36.1836 52.8359 37.9746 50.627 37.9746L34.0566 37.9746L21.3223 37.9746L4.75 37.9746C2.54102 37.9746 0.75 36.1836 0.75 33.9746L0.75 29.6484L0.75 4.75C0.75 2.54102 2.54102 0.75 4.75 0.75L50.627 0.75ZM0.75 29.6484L54.627 29.6484M21.3223 37.9746L18.873 48.75M43.3613 48.75L36.5059 48.75L18.873 48.75L12.0156 48.75M36.5059 48.75L34.0566 37.9746" stroke="#FFFFFF" stroke-opacity="1.000000" stroke-width="1.500000"/>
	<circle id="Ellipse 14" cx="27.689453" cy="33.566406" r="1.959184" fill="#FFFFFF" fill-opacity="1.000000"/>
	<path id="Vector 7" d="M22.791 11.0352L17.8926 15.9336L22.791 20.832" stroke="#FFFFFF" stroke-opacity="1.000000" stroke-width="1.500000"/>
	<path id="Vector 8" d="M32.5859 20.832L37.4844 15.9336L32.5859 11.0352" stroke="#FFFFFF" stroke-opacity="1.000000" stroke-width="1.500000"/>
	<path id="Vector 9" d="M30.627 11.0352L24.75 20.832" stroke="#FFFFFF" stroke-opacity="1.000000" stroke-width="1.500000"/>
</svg>
