<svg width="847.871094" height="859.136719" viewBox="0 0 847.871 859.137" fill="none" xmlns="http://www.w3.org/2000/svg" xmlns:xlink="http://www.w3.org/1999/xlink">
	<desc>
			Created with Pixso.
	</desc>
	<defs/>
	<path id="Ellipse 4" d="M740.822 488.459L740.1 489.205C631.801 600.98 626.738 606.205 588.822 717.457C550.822 828.957 384.793 796.562 291.322 727.457C285.34 723.035 279.434 718.684 273.609 714.395C128.312 607.387 34.8281 538.537 109.822 328.457C187.822 109.957 333.822 196.457 522.605 138.758C711.387 81.0586 849.822 375.959 740.822 488.459ZM84.3438 462.326Q83.5996 404.891 110.764 328.793L110.764 328.793Q130.014 274.869 156.691 241.205Q176.492 216.217 202.004 200.506Q207.717 196.988 213.717 193.934Q241.6 179.746 281.287 173.164Q305.527 169.145 358.793 165.326Q409.984 161.656 437.365 157.963Q483.586 151.729 522.896 139.715Q554.332 130.107 584.684 132.783Q618.609 135.773 651.182 154.109Q678.785 169.646 702.621 195.07Q725.422 219.389 742.508 250.268Q755.053 272.945 763.379 297.076Q766.172 305.172 768.49 313.43Q777.812 346.635 778.258 378.258Q778.719 411.062 769.535 438.447Q761.043 463.77 744.904 482.508Q742.584 485.203 740.104 487.762L739.381 488.508Q691.691 537.73 675.365 555.707Q650.689 582.879 637.236 602.971Q623.506 623.475 612.303 650.189Q603.697 670.711 587.877 717.135Q580.119 739.896 565.031 755.623Q553.979 767.143 538.992 774.889Q507.025 791.412 460.922 789.186Q418.383 787.131 372.248 769.793Q327.535 752.988 291.916 726.652Q286.193 722.422 274.203 713.59Q204.812 662.486 176.838 637.742Q131.516 597.658 109.977 559.586Q102.35 546.105 96.9922 531.775Q84.8223 499.238 84.3438 462.326Z" fill="#212121" fill-opacity="1.000000" fill-rule="evenodd"/>
	<path id="Ellipse 5" d="M727.564 485.994L726.873 486.709C623.104 593.809 618.254 598.814 581.924 705.412C545.514 812.248 386.43 781.209 296.871 714.994C291.139 710.756 285.479 706.588 279.9 702.479C140.682 599.947 51.1094 533.979 122.965 332.688C197.701 123.33 337.594 206.211 518.477 150.926C699.361 95.6406 832.004 378.201 727.564 485.994ZM98.5938 460.955Q97.8809 405.93 123.906 333.023Q142.35 281.361 167.906 249.111Q186.875 225.174 211.316 210.123Q216.787 206.754 222.531 203.83Q249.242 190.238 287.264 183.934Q310.488 180.082 361.521 176.424Q410.574 172.906 436.809 169.367Q481.1 163.395 518.77 151.881Q548.881 142.68 577.955 145.242Q610.453 148.105 641.654 165.67Q642.35 166.061 643.043 166.459Q695.145 196.342 729.143 257.789Q741.188 279.559 749.172 302.729Q751.828 310.438 754.035 318.301Q762.965 350.109 763.393 380.404Q764.166 435.512 738.336 471.551Q733.131 478.811 726.846 485.299L726.154 486.014Q680.453 533.176 664.816 550.402Q641.168 576.439 628.277 595.691Q615.121 615.342 604.385 640.943Q596.139 660.607 580.979 705.09Q573.549 726.887 559.102 741.947Q548.514 752.984 534.16 760.404Q503.541 776.23 459.377 774.098Q418.625 772.129 374.426 755.52Q331.588 739.422 297.465 714.189Q291.967 710.123 280.492 701.674Q214.008 652.707 187.203 629Q143.785 590.598 123.15 554.125Q115.846 541.213 110.711 527.488Q99.0527 496.316 98.5938 460.955Z" fill="#212121" fill-opacity="1.000000" fill-rule="evenodd"/>
	<path id="Ellipse 6" d="M715.252 483.707L714.588 484.393C615.027 587.15 610.373 591.953 575.518 694.229C540.584 796.732 387.949 766.951 302.021 703.422C296.521 699.355 291.092 695.355 285.738 691.414C152.166 593.039 66.2246 529.746 135.168 336.617C206.873 135.748 341.094 215.268 514.643 162.225C688.193 109.182 815.457 380.285 715.252 483.707ZM111.826 459.684Q111.141 406.896 136.109 336.953L136.109 336.953Q153.801 287.393 178.318 256.453Q196.514 233.49 219.961 219.053Q225.207 215.822 230.715 213.02Q256.336 199.982 292.811 193.934Q315.092 190.238 364.055 186.729Q411.117 183.354 436.291 179.959Q478.789 174.227 514.936 163.18Q543.818 154.354 571.705 156.811Q602.877 159.559 632.805 176.406Q633.473 176.781 634.137 177.162Q684.117 205.83 716.73 264.775Q728.277 285.643 735.934 307.852Q738.488 315.264 740.611 322.822Q749.176 353.338 749.586 382.398Q750.33 435.262 725.553 469.828Q720.561 476.791 714.535 483.012L713.869 483.697Q670.025 528.951 655.018 545.475Q632.33 570.461 619.957 588.934Q607.332 607.791 597.029 632.357Q589.117 651.227 574.57 693.906Q567.447 714.809 553.592 729.252Q543.438 739.838 529.67 746.953Q500.305 762.133 457.941 760.088Q418.85 758.201 376.445 742.266Q335.354 726.822 302.617 702.617Q297.354 698.727 286.332 690.607Q222.545 643.625 196.828 620.885Q155.174 584.045 135.381 549.055Q128.373 536.668 123.447 523.502Q112.266 493.602 111.826 459.684Z" fill="#212121" fill-opacity="1.000000" fill-rule="evenodd"/>
	<path id="Ellipse 7" d="M700.812 481.023L700.182 481.676C605.557 579.338 601.133 583.904 568.004 681.109C534.803 778.533 389.734 750.229 308.064 689.848C302.838 685.982 297.678 682.182 292.588 678.434C165.637 584.938 83.9551 524.779 149.48 341.225C217.633 150.311 345.199 225.889 510.146 175.475C675.094 125.062 796.051 382.729 700.812 481.023ZM127.346 458.189Q126.695 408.027 150.422 341.561Q167.234 294.465 190.531 265.064Q207.824 243.242 230.105 229.525Q235.086 226.459 240.316 223.797Q264.66 211.408 299.318 205.662Q320.494 202.15 367.027 198.814Q411.758 195.607 435.686 192.381Q476.082 186.932 510.439 176.432Q537.875 168.047 564.367 170.379Q593.988 172.988 622.428 188.998Q623.051 189.348 623.668 189.703Q671.176 216.939 702.174 272.967Q729.861 323.006 733.012 374.543Q733.324 379.633 733.396 384.738Q734.105 434.963 710.564 467.803Q705.82 474.418 700.096 480.328L699.463 480.979Q657.781 523.998 643.527 539.697Q621.961 563.447 610.201 581.008Q598.199 598.93 588.404 622.287Q580.879 640.232 567.059 680.787Q560.289 700.645 547.125 714.367Q537.482 724.418 524.406 731.178Q496.508 745.6 456.258 743.656Q419.111 741.861 378.816 726.719Q339.768 712.043 308.66 689.043Q303.65 685.34 293.182 677.629Q232.557 632.979 208.119 611.363Q168.535 576.357 149.727 543.109Q143.066 531.336 138.387 518.824Q127.764 490.416 127.346 458.189Z" fill="#212121" fill-opacity="1.000000" fill-rule="evenodd"/>
	<path id="Ellipse 8" d="M686.66 478.393L686.061 479.012C596.271 571.684 592.074 576.014 560.639 668.252C529.135 760.693 391.482 733.836 313.988 676.543C309.027 672.875 304.131 669.27 299.303 665.713C178.84 576.994 101.334 519.912 163.51 345.74C228.178 164.586 349.225 236.301 505.74 188.463C662.256 140.627 777.029 385.121 686.66 478.393ZM142.557 456.727Q141.939 409.139 164.451 346.076Q180.402 301.396 202.502 273.506Q218.904 252.807 240.039 239.795Q244.764 236.885 249.725 234.361Q272.818 222.609 305.695 217.158Q325.787 213.826 369.939 210.66Q412.385 207.617 435.092 204.555Q473.428 199.385 506.031 189.42Q532.059 181.465 557.189 183.68Q585.283 186.156 612.256 201.34Q612.846 201.672 613.434 202.008Q658.5 227.846 687.906 280.996Q714.174 328.471 717.162 377.367Q717.457 382.191 717.525 387.029Q718.197 434.68 695.859 465.83Q691.367 472.098 685.941 477.697L685.342 478.314Q645.777 519.148 632.264 534.033Q611.793 556.578 600.637 573.238Q589.244 590.25 579.949 612.416Q572.809 629.445 559.693 667.93Q553.277 686.756 540.797 699.768Q531.65 709.303 519.248 715.715Q492.787 729.393 454.607 727.549Q419.367 725.846 381.141 711.48Q344.094 697.557 314.582 675.738Q309.834 672.229 299.895 664.908Q242.371 622.541 219.184 602.033Q181.629 568.82 163.787 537.279Q157.473 526.119 153.035 514.256Q142.953 487.303 142.557 456.727Z" fill="#212121" fill-opacity="1.000000" fill-rule="evenodd"/>
	<path id="Ellipse 9" d="M671.348 475.549L670.783 476.131C586.227 563.4 582.275 567.48 552.672 654.342C523.002 741.396 393.373 716.104 320.395 662.148C315.725 658.695 311.113 655.299 306.566 651.951C193.125 568.402 120.135 514.648 178.688 350.627C239.586 180.029 353.578 247.564 500.971 202.516C648.365 157.467 756.449 387.713 671.348 475.549ZM159.014 455.143Q158.434 410.34 179.629 350.963Q194.646 308.895 215.453 282.639Q230.896 263.15 250.795 250.9Q255.238 248.166 259.904 245.791Q281.643 234.729 312.596 229.596Q331.514 226.459 373.09 223.479Q413.064 220.611 434.449 217.729Q470.557 212.859 501.264 203.473Q525.76 195.986 549.414 198.068Q575.859 200.398 601.252 214.693Q601.789 214.994 602.324 215.303Q644.771 239.625 672.471 289.686Q697.203 334.387 700.014 380.426Q700.291 384.961 700.355 389.51Q700.988 434.369 679.959 463.691Q675.732 469.586 670.629 474.852L670.064 475.436Q632.807 513.889 620.078 527.906Q600.795 549.141 590.289 564.832Q579.559 580.859 570.803 601.736Q564.076 617.775 551.725 654.02Q545.686 671.742 533.938 683.988Q525.332 692.957 513.666 698.986Q488.758 711.859 452.822 710.125Q419.645 708.523 383.656 694.998Q348.775 681.887 320.99 661.346Q316.527 658.045 307.158 651.145Q252.99 611.248 231.154 591.939Q195.797 560.668 179 530.975Q173.055 520.467 168.879 509.299Q159.387 483.926 159.014 455.143Z" fill="#212121" fill-opacity="1.000000" fill-rule="evenodd"/>
	<path id="Ellipse 10" d="M655.398 472.582L654.871 473.127C575.766 554.771 572.068 558.588 544.375 639.852C516.617 721.293 395.344 697.631 327.07 647.154C322.701 643.924 318.387 640.746 314.133 637.613C208.004 559.451 139.721 509.162 194.498 355.713C251.473 196.115 358.115 259.297 496.008 217.152C633.898 175.008 735.016 390.41 655.398 472.582ZM176.158 453.492Q175.615 411.588 195.439 356.051Q209.486 316.705 228.943 292.148Q243.387 273.924 261.996 262.469Q266.148 259.912 270.508 257.693Q290.838 247.35 319.785 242.549Q337.48 239.615 376.373 236.826Q413.773 234.145 433.781 231.447Q467.566 226.891 496.299 218.107Q519.205 211.107 541.322 213.057Q566.049 215.234 589.791 228.6Q590.295 228.883 590.795 229.17Q630.49 251.916 656.395 298.732Q679.529 340.545 682.156 383.607Q682.414 387.844 682.475 392.092Q683.064 434.047 663.395 461.467Q659.445 466.969 654.682 471.887L654.154 472.432Q619.295 508.408 607.389 521.521Q589.346 541.393 579.514 556.076Q569.471 571.074 561.277 590.613Q554.984 605.619 543.428 639.527Q537.781 656.1 526.795 667.547Q518.754 675.926 507.854 681.561Q484.566 693.598 450.965 691.975Q419.934 690.475 386.275 677.826Q353.656 665.566 327.666 646.352Q323.262 643.094 314.727 636.809Q264.066 599.5 243.627 581.422Q210.557 552.176 194.846 524.404Q189.289 514.582 185.385 504.143Q176.506 480.412 176.158 453.492Z" fill="#212121" fill-opacity="1.000000" fill-rule="evenodd"/>
	<path id="Ellipse 11" d="M639.119 469.559L638.629 470.064C565.086 545.967 561.648 549.516 535.902 625.062C510.098 700.777 397.354 678.779 333.883 631.854C329.82 628.85 325.809 625.895 321.854 622.982C223.189 550.318 159.709 503.564 210.633 360.908C263.6 212.535 362.742 271.273 490.938 232.092C619.131 192.912 713.137 393.164 639.119 469.559ZM193.652 451.809Q193.148 412.865 211.576 361.244Q224.629 324.678 242.711 301.857Q256.131 284.922 273.424 274.279Q277.281 271.906 281.33 269.846Q300.219 260.232 327.121 255.771Q343.568 253.045 379.723 250.453Q414.494 247.961 433.098 245.451Q464.512 241.215 491.229 233.049Q512.51 226.545 533.059 228.355Q556.033 230.379 578.09 242.795Q578.547 243.053 579 243.312Q615.902 264.449 639.982 307.969Q661.482 346.83 663.924 386.854Q664.162 390.785 664.219 394.73Q664.77 433.719 646.488 459.191Q642.822 464.299 638.4 468.863L637.91 469.369Q605.504 502.814 594.432 515.008Q577.656 533.484 568.512 547.141Q559.17 561.09 551.551 579.26Q545.699 593.213 534.955 624.74Q529.711 640.129 519.508 650.762Q512.041 658.543 501.918 663.775Q480.285 674.959 449.066 673.449Q420.229 672.057 388.947 660.301Q358.631 648.906 334.477 631.049Q330.373 628.016 322.447 622.178Q275.354 587.494 256.354 570.689Q225.617 543.508 211.018 517.699Q205.857 508.578 202.229 498.881Q193.977 476.828 193.652 451.809Z" fill="#212121" fill-opacity="1.000000" fill-rule="evenodd"/>
	<path id="Ellipse 12" d="M622.582 466.484L622.129 466.953C554.238 537.021 551.066 540.297 527.297 610.037C503.477 679.934 399.396 659.625 340.805 616.307C337.053 613.533 333.352 610.807 329.701 608.117C238.619 541.037 180.016 497.877 227.027 366.186C275.924 229.215 367.445 283.438 485.787 247.268C604.129 211.1 690.91 395.963 622.582 466.484ZM211.428 450.1Q210.963 414.162 227.969 366.521Q240.016 332.775 256.701 311.721Q269.084 296.094 285.041 286.273Q288.594 284.088 292.324 282.189Q309.752 273.32 334.574 269.205Q349.754 266.688 383.125 264.295Q415.227 261.994 432.404 259.678Q461.41 255.766 486.08 248.225Q505.709 242.227 524.66 243.895Q545.855 245.762 566.205 257.217Q566.619 257.449 567.031 257.686Q601.088 277.186 623.311 317.352Q643.158 353.221 645.404 390.158Q645.625 393.779 645.676 397.408Q646.184 433.385 629.311 456.885Q625.936 461.586 621.863 465.789L621.41 466.256Q591.496 497.131 581.273 508.391Q565.783 525.449 557.336 538.061Q548.711 550.945 541.674 567.725Q536.27 580.607 526.352 609.715Q521.514 623.908 512.104 633.713Q505.221 640.885 495.889 645.707Q475.938 656.021 447.139 654.629Q420.529 653.344 391.664 642.494Q363.688 631.98 341.398 615.502Q337.615 612.705 330.293 607.312Q286.82 575.299 269.283 559.787Q240.92 534.701 227.449 510.889Q222.689 502.477 219.344 493.537Q211.727 473.188 211.428 450.1Z" fill="#212121" fill-opacity="1.000000" fill-rule="evenodd"/>
	<path id="Ellipse 13" d="M603.971 463.027L603.561 463.451C542.031 526.955 539.156 529.924 517.615 593.131C496.025 656.477 401.697 638.072 348.594 598.811C345.195 596.299 341.838 593.826 338.529 591.391C255.982 530.594 202.869 491.479 245.477 372.125C289.791 247.986 372.74 297.131 479.994 264.35C587.248 231.568 665.898 399.111 603.971 463.027ZM231.434 448.176Q231.012 415.621 246.418 372.461Q266.799 315.369 304.699 296.082Q320.48 288.051 342.963 284.322Q356.715 282.043 386.957 279.875Q416.057 277.787 431.623 275.688Q457.92 272.143 480.285 265.305Q498.057 259.875 515.217 261.385Q534.406 263.074 552.83 273.447Q553.197 273.652 553.562 273.861Q584.416 291.521 604.551 327.912Q622.531 360.41 624.562 393.875Q624.762 397.145 624.809 400.424Q625.268 433.01 609.982 454.287Q606.932 458.533 603.254 462.33L602.842 462.754Q575.729 490.738 566.463 500.943Q552.42 516.41 544.762 527.846Q536.938 539.529 530.557 554.746Q525.66 566.424 516.668 592.807Q512.291 605.652 503.775 614.523Q497.547 621.012 489.105 625.375Q471.045 634.709 444.971 633.449Q420.869 632.285 394.723 622.459Q369.379 612.934 349.188 598.008Q345.754 595.467 339.123 590.584Q299.727 561.572 283.836 547.518Q258.143 524.793 245.941 503.225Q241.635 495.613 238.605 487.523Q231.703 469.092 231.434 448.176Z" fill="#212121" fill-opacity="1.000000" fill-rule="evenodd"/>
	<path id="Ellipse 14" d="M587.121 459.895L586.75 460.279C530.979 517.84 528.373 520.531 508.848 577.822C489.277 635.24 403.777 618.559 355.645 582.973C352.562 580.693 349.521 578.453 346.521 576.246C271.699 521.139 223.559 485.684 262.178 377.5C302.346 264.98 377.529 309.523 474.746 279.811C571.963 250.098 643.252 401.961 587.121 459.895ZM249.541 446.432Q249.16 416.941 263.119 377.836Q281.58 326.123 315.9 308.658Q330.191 301.385 350.557 298.008Q363.016 295.941 390.424 293.977Q416.803 292.086 430.916 290.182Q454.76 286.967 475.039 280.768Q491.127 275.852 506.66 277.219Q524.037 278.748 540.721 288.139Q541.045 288.32 541.369 288.506Q569.322 304.5 587.564 337.471Q603.855 366.914 605.693 397.234Q605.873 400.189 605.914 403.152Q606.33 432.668 592.484 451.932Q589.727 455.77 586.404 459.199L586.031 459.584Q561.455 484.949 553.055 494.199Q540.32 508.225 533.375 518.596Q526.279 529.193 520.492 542.994Q516.051 553.582 507.9 577.5Q503.938 589.125 496.23 597.154Q490.596 603.021 482.963 606.967Q466.615 615.416 443.006 614.275Q421.174 613.221 397.488 604.318Q374.529 595.689 356.238 582.168Q353.135 579.873 347.115 575.439Q311.41 549.145 297.01 536.408Q273.73 515.82 262.68 496.285Q258.781 489.395 256.039 482.07Q249.787 465.375 249.541 446.432Z" fill="#212121" fill-opacity="1.000000" fill-rule="evenodd"/>
	<path id="Ellipse 15" d="M567.473 456.242L567.146 456.58C518.09 507.211 515.797 509.576 498.623 559.971C481.41 610.475 406.205 595.801 363.867 564.5C361.158 562.496 358.482 560.525 355.844 558.582C290.031 510.113 247.686 478.926 281.654 383.768C316.986 284.797 383.119 323.977 468.629 297.842C554.141 271.707 616.846 405.285 567.473 456.242ZM270.662 444.398Q270.324 418.48 282.598 384.105Q298.818 338.662 328.963 323.322Q341.518 316.934 359.412 313.967Q370.365 312.15 394.469 310.422Q417.674 308.758 430.092 307.084Q451.074 304.254 468.922 298.799Q483.045 294.482 496.686 295.682Q511.947 297.023 526.602 305.271Q526.873 305.426 527.146 305.58Q551.721 319.633 567.758 348.617Q582.08 374.504 583.689 401.158Q583.846 403.742 583.883 406.334Q584.248 432.271 572.078 449.189Q569.662 452.545 566.756 455.547L566.428 455.885Q544.809 478.197 537.418 486.336Q526.213 498.678 520.098 507.809Q513.85 517.139 508.754 529.289Q504.848 538.607 497.676 559.648Q494.199 569.85 487.436 576.895Q482.494 582.039 475.801 585.498Q461.451 592.916 440.715 591.914Q421.531 590.986 400.715 583.164Q380.537 575.58 364.461 563.695Q361.727 561.674 356.438 557.777Q325.035 534.65 312.373 523.453Q291.912 505.357 282.201 488.191Q278.779 482.141 276.371 475.711Q270.877 461.043 270.662 444.398Z" fill="#212121" fill-opacity="1.000000" fill-rule="evenodd"/>
	<path id="Ellipse 16" d="M546.805 452.402L546.523 452.691C504.531 496.033 502.57 498.059 487.867 541.195C473.135 584.428 408.758 571.867 372.516 545.072C370.195 543.357 367.904 541.672 365.646 540.008C309.309 498.516 273.062 471.82 302.141 390.363C332.385 305.643 388.994 339.182 462.193 316.811C535.391 294.438 589.068 408.783 546.805 452.402ZM292.873 442.264Q292.586 420.104 303.082 390.701Q316.949 351.855 342.701 338.75Q353.428 333.291 368.725 330.754Q378.096 329.201 398.721 327.723Q418.59 326.297 429.223 324.863Q447.195 322.439 462.484 317.766Q474.547 314.08 486.197 315.104Q499.23 316.25 511.746 323.295Q511.969 323.42 512.188 323.545Q533.207 335.555 546.922 360.344Q559.18 382.496 560.545 405.301Q560.676 407.488 560.707 409.682Q561.02 431.855 550.611 446.307Q548.557 449.156 546.086 451.707L545.807 451.996Q513.76 485.072 506.131 496.463Q500.775 504.463 496.408 514.877Q493.062 522.854 486.922 540.873Q483.953 549.58 478.18 555.59Q473.969 559.973 468.266 562.92Q456.016 569.252 438.305 568.396Q421.906 567.604 404.107 560.914Q386.854 554.43 373.109 544.27Q370.771 542.539 366.24 539.203Q339.363 519.41 328.529 509.828Q311.033 494.354 302.732 479.68Q299.811 474.516 297.754 469.027Q293.057 456.49 292.873 442.264Z" fill="#212121" fill-opacity="1.000000" fill-rule="evenodd"/>
	<path id="Ellipse 17" d="M526.328 448.598L526.094 448.838C491.102 484.955 489.465 486.643 477.215 522.592C464.936 558.619 411.289 548.15 381.086 525.822C379.152 524.393 377.244 522.986 375.363 521.602C328.416 487.025 298.209 464.779 322.441 396.898C347.645 326.297 394.818 354.246 455.818 335.604C516.816 316.959 561.547 412.246 526.328 448.598ZM314.885 440.145Q314.646 421.709 323.383 397.234Q334.916 364.926 356.318 354.035Q365.234 349.498 377.955 347.389Q385.756 346.094 402.936 344.863Q436.914 342.426 456.109 336.559Q466.129 333.498 475.803 334.348Q486.633 335.299 497.031 341.152Q497.199 341.248 497.367 341.344Q514.863 351.326 526.279 371.961Q536.482 390.402 537.613 409.385Q537.721 411.189 537.748 412.998Q538.008 431.441 529.344 443.447Q527.648 445.797 525.609 447.9L525.377 448.143Q498.66 475.717 492.295 485.221Q485.367 495.566 476.268 522.268Q473.805 529.492 469.014 534.477Q465.525 538.105 460.803 540.547Q450.635 545.803 435.92 545.092Q422.281 544.432 407.473 538.867Q393.115 533.473 381.682 525.018Q379.734 523.578 375.955 520.797Q353.564 504.307 344.543 496.326Q329.982 483.449 323.08 471.246Q320.656 466.961 318.947 462.406Q315.039 451.98 314.885 440.145Z" fill="#212121" fill-opacity="1.000000" fill-rule="evenodd"/>
</svg>
