<svg width="393.167969" height="367.232422" viewBox="0 0 393.168 367.232" fill="none" xmlns="http://www.w3.org/2000/svg" xmlns:xlink="http://www.w3.org/1999/xlink">
	<desc>
			Created with Pixso.
	</desc>
	<defs/>
	<path id="Ellipse 4" d="M145.68 308.152C57.9023 265.156 18.4414 209.77 49.3789 126.068C80.3164 42.3652 150.15 10.4355 243.902 58.3242C337.656 106.213 346.252 164.736 340.203 240.408C334.156 316.08 233.459 351.146 145.68 308.152ZM44.8086 211.166Q32.9648 173.363 50.3164 126.414Q70.2051 72.6055 108.365 50.8594Q115.574 46.75 123.438 43.7852Q126.596 42.5938 129.816 41.6074Q179.281 26.4395 243.447 59.2148Q308.002 92.1895 328.562 139.348Q337.652 160.199 339.896 186.852Q341.734 208.703 339.207 240.328Q338.137 253.713 333.229 265.5Q328.119 277.768 318.852 288.303Q318.518 288.682 318.18 289.057Q300.986 308.182 273.262 317.836Q244.939 327.699 212.328 325.35Q202.668 324.652 193.201 322.914Q169.037 318.479 146.121 307.254Q77.8535 273.816 53.8789 231.879Q48.1699 221.891 44.8086 211.166Z" fill="#212121" fill-opacity="1.000000" fill-rule="evenodd"/>
	<path id="Ellipse 5" d="M149.504 298.865C67.8359 258.926 31.0371 207.65 59.582 130.381C88.1289 53.1094 152.941 23.7734 240.172 68.25C327.402 112.727 335.531 166.824 330.094 236.734C324.654 306.645 231.17 338.805 149.504 298.865ZM55.3984 208.309Q44.6719 173.629 60.5215 130.727Q78.7012 81.5137 113.627 61.4434Q120.59 57.4414 128.221 54.5977Q130.797 53.6367 133.42 52.8223Q179.572 38.4727 239.719 69.1406Q299.762 99.7539 318.969 143.357Q327.461 162.637 329.607 187.258Q331.369 207.445 329.096 236.656Q328.137 248.996 323.615 259.855Q318.902 271.178 310.316 280.891Q310.158 281.07 309.998 281.25Q294.023 299.115 268.059 308.047Q241.777 317.09 211.482 314.84Q202.748 314.191 194.178 312.633Q171.479 308.498 149.943 297.967Q86.4473 266.914 64.0801 228.123Q58.5742 218.576 55.3984 208.309Z" fill="#212121" fill-opacity="1.000000" fill-rule="evenodd"/>
	<path id="Ellipse 6" d="M153.666 288.678C79.1426 252.24 45.5488 205.488 71.5645 135.062C97.5781 64.6387 156.699 37.9219 236.301 78.4961C315.904 119.072 323.34 168.389 318.404 232.111C313.469 295.834 228.191 325.115 153.666 288.678ZM67.8359 205.992Q58.0879 174.434 72.502 135.41Q89.0391 90.6406 120.814 72.3633Q127.193 68.6934 134.186 66.0918Q136.475 65.2422 138.803 64.5156Q180.912 51.3867 235.848 79.3887Q290.611 107.303 308.139 147.027Q315.889 164.59 317.855 187.02Q319.469 205.416 317.406 232.035Q316.537 243.266 312.424 253.146Q308.135 263.455 300.312 272.295Q300.195 272.428 300.078 272.559Q285.516 288.867 261.807 297.01Q237.85 305.234 210.227 303.176Q202.303 302.584 194.527 301.172Q173.785 297.402 154.105 287.779Q96.1895 259.463 75.7793 224.115Q70.7363 215.385 67.8359 205.992Z" fill="#212121" fill-opacity="1.000000" fill-rule="evenodd"/>
	<path id="Ellipse 7" d="M157.83 278.492C90.4473 245.557 60.0605 203.326 83.5449 139.748C107.027 76.1699 160.457 52.0723 232.43 88.7461C304.404 125.42 311.148 169.953 306.715 227.49C302.283 285.027 225.211 311.428 157.83 278.492ZM80.2695 203.668Q71.5039 175.232 84.4824 140.096Q99.377 99.7695 128.002 83.2852Q133.797 79.9492 140.152 77.5898Q142.152 76.8477 144.184 76.2129Q182.254 64.3008 231.977 89.6367Q281.463 114.852 297.311 150.699Q304.316 166.547 306.104 186.783Q307.568 203.387 305.719 227.414Q304.938 237.537 301.232 246.441Q297.363 255.734 290.309 263.701Q290.232 263.787 290.156 263.875Q277.006 278.625 255.555 285.973Q233.922 293.383 208.971 291.512Q201.859 290.979 194.883 289.715Q176.094 286.307 158.268 277.594Q105.93 252.01 87.4785 220.111Q82.8965 212.191 80.2695 203.668Z" fill="#212121" fill-opacity="1.000000" fill-rule="evenodd"/>
	<path id="Ellipse 8" d="M162.588 266.85C103.371 237.918 76.6465 200.854 97.2383 145.1C117.83 89.3457 164.754 68.2422 228.008 100.457C291.262 132.672 297.215 171.74 293.357 222.207C289.5 272.674 221.807 295.783 162.588 266.85ZM94.4824 201.012Q86.8379 176.146 98.1758 145.447Q111.193 110.199 136.217 95.7676Q141.342 92.8105 146.971 90.7285Q148.641 90.1113 150.336 89.5762Q183.785 79.0566 227.555 101.348Q271.008 123.479 284.936 154.893Q291.092 168.779 292.674 186.512Q293.971 201.066 292.361 222.131Q291.684 230.986 288.443 238.775Q285.059 246.908 278.877 253.879Q278.846 253.914 278.814 253.949Q267.279 266.916 248.41 273.357Q229.434 279.836 207.537 278.18Q201.342 277.713 195.262 276.611Q178.721 273.619 163.027 265.951Q117.061 243.494 100.85 215.531Q96.7969 208.539 94.4824 201.012Z" fill="#212121" fill-opacity="1.000000" fill-rule="evenodd"/>
	<path id="Ellipse 9" d="M166.752 256.666C114.676 231.234 91.1602 198.693 109.219 149.785C127.279 100.877 168.512 82.3926 224.137 110.705C279.762 139.02 285.023 173.305 281.67 217.586C278.314 261.867 218.826 282.096 166.752 256.666ZM106.918 198.695Q100.254 176.953 110.156 150.131Q121.531 119.328 143.404 106.689Q147.943 104.066 152.938 102.227Q154.318 101.717 155.721 101.273Q185.129 91.9727 223.684 111.598Q261.857 131.027 274.107 158.564Q283.531 179.754 280.672 217.51Q280.086 225.258 277.25 232.07Q274.289 239.188 268.873 245.285Q258.756 256.676 242.158 262.32Q225.506 267.984 206.281 266.518Q200.906 266.107 195.631 265.156Q181.037 262.529 167.189 255.766Q126.801 236.043 112.549 211.527Q108.959 205.35 106.918 198.695Z" fill="#212121" fill-opacity="1.000000" fill-rule="evenodd"/>
	<path id="Ellipse 10" d="M170.912 246.479C125.98 224.549 105.67 196.529 121.197 154.469C136.727 112.406 172.268 96.541 220.264 120.953C268.26 145.365 272.83 174.869 269.979 212.963C267.127 251.059 215.844 268.406 170.912 246.479ZM119.352 196.375Q113.666 177.756 122.137 154.814Q131.869 128.453 150.59 117.611Q154.543 115.32 158.9 113.723Q159.992 113.32 161.102 112.967Q186.465 104.885 219.811 121.844Q252.707 138.576 263.275 162.234Q271.41 180.441 268.98 212.889Q268.484 219.525 266.057 225.361Q263.52 231.465 258.867 236.689Q250.178 246.453 235.906 251.281Q221.576 256.129 205.023 254.852Q200.451 254.5 195.959 253.693Q183.334 251.428 171.352 245.58Q136.539 228.59 124.246 207.52Q121.117 202.156 119.352 196.375Z" fill="#212121" fill-opacity="1.000000" fill-rule="evenodd"/>
	<path id="Ellipse 11" d="M134.893 159.82C122.256 194.059 138.902 216.91 175.672 234.836C212.439 252.762 254.346 238.705 256.621 207.68C258.898 176.654 255.119 152.617 215.842 132.664C176.562 112.711 147.527 125.582 134.893 159.82ZM133.564 193.723Q129 178.674 135.83 160.166Q143.686 138.883 158.805 130.092Q162.09 128.182 165.717 126.859Q166.482 126.582 167.256 126.332Q187.998 119.643 215.389 133.557Q242.254 147.203 250.902 166.43Q257.559 181.229 255.623 207.605Q255.23 212.977 253.268 217.695Q251.213 222.639 247.438 226.865Q240.379 234.77 228.764 238.666Q217.088 242.582 203.59 241.521Q199.943 241.234 196.359 240.596Q185.971 238.744 176.109 233.938Q147.672 220.072 137.617 202.939Q135.016 198.506 133.564 193.723Z" fill="#212121" fill-opacity="1.000000" fill-rule="evenodd"/>
	<path id="Ellipse 12" d="M180.428 223.195C151.822 209.271 138.84 191.588 148.584 165.174C158.326 138.76 180.857 128.883 211.416 144.377C241.977 159.871 244.963 178.443 243.262 202.398C241.561 226.354 209.033 237.117 180.428 223.195ZM147.777 191.074Q144.33 179.594 149.521 165.52Q155.5 149.312 167.02 142.572Q169.633 141.043 172.533 140.002Q172.967 139.844 173.406 139.701Q189.527 134.4 210.965 145.27Q231.797 155.832 238.527 170.629Q243.707 182.02 242.264 202.328Q241.973 206.43 240.477 210.031Q238.904 213.814 236.006 217.043Q230.58 223.086 221.619 226.051Q215.986 227.916 210.236 228.404Q195.914 229.619 180.867 222.295Q158.801 211.557 150.986 198.359Q148.912 194.857 147.777 191.074Z" fill="#212121" fill-opacity="1.000000" fill-rule="evenodd"/>
	<path id="Ellipse 13" d="M185.186 211.553C164.744 201.633 155.426 189.115 162.275 170.525C169.125 151.936 185.152 145.053 206.992 156.088C228.832 167.123 231.029 180.23 229.902 197.115C228.775 214 205.629 221.473 185.186 211.553ZM161.988 188.426Q159.66 180.514 163.213 170.871Q167.316 159.736 175.236 155.051Q177.176 153.902 179.344 153.141Q179.451 153.104 179.561 153.066Q191.055 149.156 206.541 156.98Q221.344 164.461 226.152 174.828Q229.855 182.811 228.904 197.049Q228.615 201.404 226.631 204.758Q223.154 210.633 214.48 213.434Q210.725 214.646 206.889 215Q196.545 215.953 185.623 210.652Q169.928 203.037 164.354 193.775Q162.807 191.207 161.988 188.426Z" fill="#212121" fill-opacity="1.000000" fill-rule="evenodd"/>
</svg>
