<svg width="16.000000" height="16.000000" viewBox="0 0 16 16" fill="none" xmlns="http://www.w3.org/2000/svg" xmlns:xlink="http://www.w3.org/1999/xlink">
	<desc>
			Created with Pixso.
	</desc>
	<defs/>
	<path id="Instagram_icon" d="M5.33398 8C5.33398 6.52734 6.52734 5.33398 8 5.33398C9.47266 5.33398 10.668 6.52734 10.668 8C10.668 9.47266 9.47266 10.666 8 10.666C6.52734 10.666 5.33398 9.47266 5.33398 8ZM3.89258 8C3.89258 10.2695 5.73047 12.1074 8 12.1074C10.2695 12.1074 12.1074 10.2695 12.1074 8C12.1074 5.73047 10.2695 3.89258 8 3.89258C5.73047 3.89258 3.89258 5.73047 3.89258 8ZM11.3105 3.72852C11.3105 3.91992 11.3672 4.10547 11.4727 4.26172C11.5781 4.41992 11.7285 4.54297 11.9023 4.61719C12.0781 4.68945 12.2715 4.70898 12.457 4.67188C12.6445 4.63477 12.8145 4.54297 12.9492 4.4082C13.084 4.27539 13.1758 4.10352 13.2129 3.91797C13.25 3.73047 13.2305 3.53711 13.1582 3.36328C13.0859 3.1875 12.9629 3.03711 12.8047 2.93164C12.6465 2.82617 12.4609 2.76953 12.2715 2.76953L12.2715 2.76953C12.0156 2.76953 11.7715 2.87109 11.5918 3.05078C11.4121 3.23047 11.3105 3.47461 11.3105 3.72852ZM4.76758 14.5117C3.98828 14.4766 3.56445 14.3457 3.2832 14.2363C2.9082 14.0918 2.64258 13.918 2.36133 13.6387C2.08203 13.3594 1.9082 13.0918 1.76367 12.7188C1.6543 12.4375 1.52344 12.0137 1.48828 11.2324C1.44922 10.3906 1.44141 10.1367 1.44141 8C1.44141 5.86328 1.45117 5.61133 1.48828 4.76758C1.52344 3.98633 1.6543 3.56445 1.76367 3.28125C1.91016 2.9082 2.08203 2.64062 2.36133 2.36133C2.64258 2.08203 2.9082 1.9082 3.2832 1.76367C3.56445 1.65234 3.98828 1.52344 4.76758 1.48828C5.61133 1.44922 5.86523 1.44141 8 1.44141C10.1367 1.44141 10.3887 1.44922 11.2344 1.48828C12.0137 1.52344 12.4375 1.6543 12.7188 1.76367C13.0918 1.9082 13.3594 2.08203 13.6387 2.36133C13.9199 2.64062 14.0918 2.9082 14.2383 3.28125C14.3477 3.5625 14.4766 3.98633 14.5137 4.76758C14.5508 5.61133 14.5586 5.86328 14.5586 8C14.5586 10.1367 14.5508 10.3887 14.5137 11.2324C14.4766 12.0137 14.3477 12.4375 14.2383 12.7188C14.0918 13.0918 13.9199 13.3594 13.6387 13.6387C13.3594 13.918 13.0918 14.0918 12.7188 14.2363C12.4375 14.3457 12.0137 14.4766 11.2344 14.5117C10.3906 14.5508 10.1367 14.5586 8 14.5586C5.86328 14.5586 5.61133 14.5508 4.76758 14.5117ZM4.70117 0.0488281C3.84961 0.0878906 3.26758 0.222656 2.75977 0.419922C2.23438 0.625 1.78906 0.898438 1.34375 1.34375C0.898438 1.78711 0.625 2.23438 0.419922 2.75977C0.222656 3.26758 0.0878906 3.84961 0.0488281 4.70117C0.00976562 5.55469 0 5.82812 0 8C0 10.1719 0.00976562 10.4453 0.0488281 11.2988C0.0878906 12.1504 0.222656 12.7324 0.419922 13.2402C0.625 13.7656 0.898438 14.2129 1.34375 14.6562C1.78711 15.1016 2.23438 15.375 2.75977 15.5801C3.26953 15.7773 3.84961 15.9121 4.70117 15.9512C5.55469 15.9902 5.82812 16 8 16C10.1738 16 10.4453 15.9902 11.2988 15.9512C12.1504 15.9121 12.7324 15.7773 13.2402 15.5801C13.7676 15.375 14.2129 15.1016 14.6582 14.6562C15.1035 14.2129 15.375 13.7656 15.5801 13.2402C15.7793 12.7324 15.9141 12.1504 15.9531 11.2988C15.9902 10.4453 16 10.1719 16 8C16 5.82812 15.9902 5.55469 15.9531 4.70117C15.9141 3.84961 15.7793 3.26758 15.5801 2.75977C15.375 2.23438 15.1016 1.78711 14.6582 1.34375C14.2129 0.898438 13.7676 0.625 13.2422 0.419922C12.7324 0.222656 12.1504 0.0859375 11.2988 0.0488281C10.4473 0.00976562 10.1738 0 8 0C5.82812 0 5.55469 0.00976562 4.70117 0.0488281Z" fill="#212121" fill-opacity="1.000000" fill-rule="nonzero"/>
</svg>
