<svg width="32.000000" height="32.000000" viewBox="0 0 32 32" fill="none" xmlns="http://www.w3.org/2000/svg" xmlns:xlink="http://www.w3.org/1999/xlink">
	<desc>
			Created with Pixso.
	</desc>
	<defs/>
	<circle id="Ellipse 35" cx="16.000000" cy="16.000000" r="16.000000" fill="#1A1A1A" fill-opacity="1.000000"/>
	<path id="Instagram_icon" d="M13.334 16C13.334 14.5273 14.5273 13.334 16 13.334C17.4727 13.334 18.668 14.5273 18.668 16C18.668 17.4727 17.4727 18.666 16 18.666C14.5273 18.666 13.334 17.4727 13.334 16ZM11.8926 16C11.8926 18.2695 13.7305 20.1074 16 20.1074C18.2695 20.1074 20.1074 18.2695 20.1074 16C20.1074 13.7305 18.2695 11.8926 16 11.8926C13.7305 11.8926 11.8926 13.7305 11.8926 16ZM19.3105 11.7285C19.3105 11.9199 19.3672 12.1055 19.4727 12.2617C19.5781 12.4199 19.7285 12.543 19.9023 12.6172C20.0781 12.6895 20.2715 12.709 20.457 12.6719C20.6445 12.6348 20.8145 12.543 20.9492 12.4082C21.084 12.2754 21.1758 12.1035 21.2129 11.918C21.25 11.7305 21.2305 11.5371 21.1582 11.3633C21.0859 11.1875 20.9629 11.0371 20.8047 10.9316C20.6465 10.8262 20.4609 10.7695 20.2715 10.7695L20.2715 10.7695C20.0156 10.7695 19.7715 10.8711 19.5918 11.0508C19.4121 11.2305 19.3105 11.4746 19.3105 11.7285ZM12.7676 22.5117C11.9883 22.4766 11.5645 22.3457 11.2832 22.2363C10.9082 22.0918 10.6426 21.918 10.3613 21.6387C10.082 21.3594 9.9082 21.0918 9.76367 20.7188C9.6543 20.4375 9.52344 20.0137 9.48828 19.2324C9.44922 18.3906 9.44141 18.1367 9.44141 16C9.44141 13.8633 9.45117 13.6113 9.48828 12.7676C9.52344 11.9863 9.6543 11.5645 9.76367 11.2812C9.91016 10.9082 10.082 10.6406 10.3613 10.3613C10.6426 10.082 10.9082 9.9082 11.2832 9.76367C11.5645 9.65234 11.9883 9.52344 12.7676 9.48828C13.6113 9.44922 13.8652 9.44141 16 9.44141C18.1367 9.44141 18.3887 9.44922 19.2344 9.48828C20.0137 9.52344 20.4375 9.6543 20.7188 9.76367C21.0918 9.9082 21.3594 10.082 21.6387 10.3613C21.9199 10.6406 22.0918 10.9082 22.2383 11.2812C22.3477 11.5625 22.4766 11.9863 22.5137 12.7676C22.5508 13.6113 22.5586 13.8633 22.5586 16C22.5586 18.1367 22.5508 18.3887 22.5137 19.2324C22.4766 20.0137 22.3477 20.4375 22.2383 20.7188C22.0918 21.0918 21.9199 21.3594 21.6387 21.6387C21.3594 21.918 21.0918 22.0918 20.7188 22.2363C20.4375 22.3457 20.0137 22.4766 19.2344 22.5117C18.3906 22.5508 18.1367 22.5586 16 22.5586C13.8633 22.5586 13.6113 22.5508 12.7676 22.5117ZM12.7012 8.04883C11.8496 8.08789 11.2676 8.22266 10.7598 8.41992C10.2344 8.625 9.78906 8.89844 9.34375 9.34375C8.89844 9.78711 8.625 10.2344 8.41992 10.7598C8.22266 11.2676 8.08789 11.8496 8.04883 12.7012C8.00977 13.5547 8 13.8281 8 16C8 18.1719 8.00977 18.4453 8.04883 19.2988C8.08789 20.1504 8.22266 20.7324 8.41992 21.2402C8.625 21.7656 8.89844 22.2129 9.34375 22.6562C9.78711 23.1016 10.2344 23.375 10.7598 23.5801C11.2695 23.7773 11.8496 23.9121 12.7012 23.9512C13.5547 23.9902 13.8281 24 16 24C18.1738 24 18.4453 23.9902 19.2988 23.9512C20.1504 23.9121 20.7324 23.7773 21.2402 23.5801C21.7676 23.375 22.2129 23.1016 22.6582 22.6562C23.1035 22.2129 23.375 21.7656 23.5801 21.2402C23.7793 20.7324 23.9141 20.1504 23.9531 19.2988C23.9902 18.4453 24 18.1719 24 16C24 13.8281 23.9902 13.5547 23.9531 12.7012C23.9141 11.8496 23.7793 11.2676 23.5801 10.7598C23.375 10.2344 23.1016 9.78711 22.6582 9.34375C22.2129 8.89844 21.7676 8.625 21.2422 8.41992C20.7324 8.22266 20.1504 8.08594 19.2988 8.04883C18.4473 8.00977 18.1738 8 16 8C13.8281 8 13.5547 8.00977 12.7012 8.04883Z" fill="#FFFFFF" fill-opacity="1.000000" fill-rule="nonzero"/>
</svg>
