<svg width="32.000000" height="32.000000" viewBox="0 0 32 32" fill="none" xmlns="http://www.w3.org/2000/svg" xmlns:xlink="http://www.w3.org/1999/xlink">
	<desc>
			Created with Pixso.
	</desc>
	<defs/>
	<circle id="Ellipse 34" cx="16.000000" cy="16.000000" r="16.000000" fill="#1A1A1A" fill-opacity="1.000000"/>
	<path id="LinkedIn_icon" d="M9.52344 11.7012C10.6172 11.8965 11.5723 11.3359 11.8047 10.3613C12.1074 9.07227 11.2461 7.97656 9.94336 8C9.08203 7.97656 8.40625 8.41406 8.12695 9.14453C7.70898 10.3145 8.35938 11.5059 9.52344 11.7012ZM23.7441 23.9941C22.7656 23.9707 21.8125 23.9707 20.834 23.9941C20.625 23.9941 20.5781 23.9453 20.5781 23.7266L20.5781 18.2988C20.5781 17.8848 20.5547 17.4707 20.4395 17.0801C20.0898 15.8145 18.6934 15.3516 17.6934 16.2051C17.1582 16.6426 16.9473 17.252 16.9473 17.9824L16.9473 23.0938C16.9473 23.166 16.9453 23.2383 16.9434 23.3105C16.9375 23.459 16.9316 23.6113 16.9473 23.7754C16.9707 23.9707 16.8789 24.0195 16.7148 23.9941L13.7363 23.9941C13.5508 23.9941 13.5039 23.9453 13.5039 23.75C13.5273 22.2168 13.5273 20.6836 13.5273 19.125C13.5273 17.2266 13.5273 15.3281 13.5039 13.4531C13.5039 13.2344 13.5508 13.1855 13.7363 13.1855L16.7148 13.1855C16.9023 13.1855 16.9473 13.2344 16.9473 13.4297L16.9473 14.6719L17.0645 14.5488C17.9727 13.1621 19.252 12.7715 20.7656 13.0156C22.5098 13.3086 23.627 14.5742 23.9062 16.5215C23.9766 16.9844 24 17.4453 24 17.9082L24 23.7266C24 23.9219 23.9531 23.9941 23.7441 23.9941ZM11.6426 18.5898L11.6426 23.7012C11.6426 23.9219 11.5957 23.9941 11.3867 23.9941C10.7344 23.9785 10.082 23.9824 9.43164 23.9883C9.10547 23.9922 8.7793 23.9941 8.45312 23.9941C8.26758 23.9941 8.2207 23.9453 8.2207 23.75L8.2207 13.4297C8.2207 13.2598 8.26758 13.1855 8.45312 13.1855L11.4551 13.1855C11.666 13.1855 11.6875 13.2598 11.6875 13.4531C11.6426 15.1582 11.6426 16.8613 11.6426 18.5898Z" fill="#FFFFFF" fill-opacity="1.000000" fill-rule="evenodd"/>
</svg>
