<svg width="16.000000" height="16.000000" viewBox="0 0 16 16" fill="none" xmlns="http://www.w3.org/2000/svg" xmlns:xlink="http://www.w3.org/1999/xlink">
	<desc>
			Created with Pixso.
	</desc>
	<defs/>
	<path id="LinkedIn_icon" d="M1.52344 3.70117C2.61719 3.89648 3.57227 3.33594 3.80469 2.36133C4.10742 1.07227 3.24609 -0.0234375 1.94336 0C1.08203 -0.0234375 0.40625 0.414062 0.126953 1.14453C-0.291016 2.31445 0.359375 3.50586 1.52344 3.70117ZM15.7441 15.9941C14.7656 15.9707 13.8125 15.9707 12.834 15.9941C12.625 15.9941 12.5781 15.9453 12.5781 15.7266L12.5781 10.2988C12.5781 9.88477 12.5547 9.4707 12.4395 9.08008C12.0898 7.81445 10.6934 7.35156 9.69336 8.20508C9.1582 8.64258 8.94727 9.25195 8.94727 9.98242L8.94727 15.0938C8.94727 15.166 8.94531 15.2383 8.94336 15.3105C8.9375 15.459 8.93164 15.6113 8.94727 15.7754C8.9707 15.9707 8.87891 16.0195 8.71484 15.9941L5.73633 15.9941C5.55078 15.9941 5.50391 15.9453 5.50391 15.75C5.52734 14.2168 5.52734 12.6836 5.52734 11.125C5.52734 9.22656 5.52734 7.32812 5.50391 5.45312C5.50391 5.23438 5.55078 5.18555 5.73633 5.18555L8.71484 5.18555C8.90234 5.18555 8.94727 5.23438 8.94727 5.42969L8.94727 6.67188L9.06445 6.54883C9.97266 5.16211 11.252 4.77148 12.7656 5.01562C14.5098 5.30859 15.627 6.57422 15.9062 8.52148C15.9766 8.98438 16 9.44531 16 9.9082L16 15.7266C16 15.9219 15.9531 15.9941 15.7441 15.9941ZM3.64258 10.5898L3.64258 15.7012C3.64258 15.9219 3.5957 15.9941 3.38672 15.9941C2.73438 15.9785 2.08203 15.9824 1.43164 15.9883C1.10547 15.9922 0.779297 15.9941 0.453125 15.9941C0.267578 15.9941 0.220703 15.9453 0.220703 15.75L0.220703 5.42969C0.220703 5.25977 0.267578 5.18555 0.453125 5.18555L3.45508 5.18555C3.66602 5.18555 3.6875 5.25977 3.6875 5.45312C3.64258 7.1582 3.64258 8.86133 3.64258 10.5898Z" fill="#FFFFFF" fill-opacity="1.000000" fill-rule="evenodd"/>
</svg>
