<svg width="133.486328" height="52.000000" viewBox="0 0 133.486 52" fill="none" xmlns="http://www.w3.org/2000/svg" xmlns:xlink="http://www.w3.org/1999/xlink">
	<desc>
			Created with Pixso.
	</desc>
	<defs>
		<clipPath id="clip115_689">
			<rect id="Rivo_logo" width="133.486588" height="52.000000" fill="white" fill-opacity="0"/>
		</clipPath>
	</defs>
	<rect id="Rivo_logo" width="133.486588" height="52.000000" fill="#FFFFFF" fill-opacity="0"/>
	<g clip-path="url(#clip115_689)">
		<path id="Vector" d="M109.494 45.6113L108.264 47.9746L107.033 45.6113L106.189 45.6113L107.883 48.6445L107.883 50.5898L108.625 50.5898L108.625 48.541L108.699 48.541L110.336 45.6074L109.494 45.6113ZM93.5215 49.2637C93.3613 49.4883 93.1465 49.668 92.9004 49.791C92.6523 49.9121 92.3789 49.9707 92.1016 49.9629C91.6172 49.9473 91.1562 49.7422 90.8184 49.3945C90.4785 49.0449 90.2891 48.5781 90.2891 48.0918C90.2891 47.6055 90.4785 47.1387 90.8184 46.7891C91.1562 46.4414 91.6172 46.2363 92.1016 46.2207C92.4023 46.2109 92.7012 46.2812 92.9648 46.4258C93.1875 46.5469 93.3789 46.7188 93.5234 46.9258L94.1699 46.5566C93.9375 46.2266 93.6289 45.959 93.2695 45.7754C92.9121 45.5918 92.5137 45.498 92.1094 45.5039C91.7676 45.4941 91.4258 45.5547 91.1074 45.6836C90.7891 45.8105 90.5 46 90.2578 46.2441C90.0156 46.4863 89.8242 46.7754 89.6973 47.0938C89.5703 47.4121 89.5098 47.7539 89.5195 48.0957C89.5117 48.4395 89.5742 48.7793 89.7012 49.0957C89.8301 49.4141 90.0195 49.7031 90.2617 49.9453C90.5039 50.1855 90.793 50.377 91.1113 50.5039C91.4297 50.6309 91.7695 50.6934 92.1113 50.6855C92.5156 50.6914 92.916 50.5996 93.2754 50.416C93.6367 50.2344 93.9453 49.9648 94.1777 49.6348L93.5215 49.2637ZM76.3145 45.6094L76.3145 49.1328L73.8457 45.6094L73.2715 45.6094L73.2715 50.5996L74.0137 50.5996L74.0137 47.0645L76.4844 50.5996L77.0586 50.5996L77.0586 45.6094L76.3145 45.6094ZM58.2949 49.8848L58.2949 48.4238L60.2812 48.4238L60.2812 47.7285L58.2949 47.7285L58.2949 46.3184L60.4707 46.3184L60.4707 45.6094L57.5371 45.6094L57.5371 50.5996L60.5098 50.5996L60.5098 49.8887L58.2949 49.8848ZM42.6406 48.0449L42.6406 48.6816L44.3008 48.6816L44.2441 48.8652C44.0273 49.5664 43.416 49.9688 42.5703 49.9688C41.4336 49.9688 40.6328 49.2031 40.6328 48.1094C40.625 47.8613 40.668 47.6133 40.7578 47.3828C40.8477 47.1504 40.9844 46.9414 41.1602 46.7656C41.334 46.5879 41.543 46.4492 41.7734 46.3574C42.0039 46.2656 42.252 46.2207 42.5 46.2266C42.7793 46.2168 43.0566 46.2734 43.3086 46.3926C43.5605 46.5117 43.7812 46.6895 43.9512 46.9102L44.5938 46.5391C44.3691 46.2305 44.0762 45.9766 43.7383 45.7969C43.3555 45.5918 42.9277 45.4902 42.4941 45.5L42.4473 45.5C42.1016 45.5 41.7598 45.5684 41.4395 45.7012C41.1211 45.8359 40.832 46.0312 40.5898 46.2773C40.3477 46.5234 40.1562 46.8164 40.0273 47.1367C39.9004 47.459 39.8359 47.8027 39.8438 48.1484C39.8496 48.4941 39.9238 48.834 40.0645 49.1504C40.2031 49.4668 40.4062 49.752 40.6562 49.9902C40.9082 50.2266 41.2051 50.4121 41.5293 50.5332C41.8516 50.6562 42.1973 50.7109 42.543 50.6973C44.0098 50.6973 44.9902 49.7383 44.9902 48.3105L44.9902 48.0449L42.6406 48.0449ZM26.2324 45.6094L25.1523 45.6094L23.4102 50.5996L24.2285 50.5996L24.543 49.6543L26.8457 49.6543L27.1602 50.5996L27.9824 50.5996L26.2324 45.6094ZM24.7793 48.959L25.7012 46.2168L26.6172 48.959L24.7793 48.959Z" fill="#FDDD0A" fill-opacity="1.000000" fill-rule="evenodd"/>
		<path id="Vector" d="M42.1426 0.0351562L42.1426 36.1074L51.1777 36.1074L51.1777 0L42.1426 0.0351562Z" fill="#FDDD0A" fill-opacity="1.000000" fill-rule="nonzero"/>
		<path id="Vector" d="M98.332 0L87.7988 0L77.2617 21.3027L66.7305 0L56.1895 0L73.8672 36.1074L80.6562 36.1074L98.332 0Z" fill="#FDDD0A" fill-opacity="1.000000" fill-rule="nonzero"/>
		<path id="Vector" d="M115.152 0C110.938 0.0214844 106.861 1.50195 103.615 4.19141C100.371 6.88086 98.1602 10.6133 97.3613 14.75C96.5605 18.8867 97.2207 23.1719 99.2285 26.877C101.236 30.582 104.467 33.4746 108.371 35.0645C112.275 36.6543 116.609 36.8418 120.635 35.5938C124.662 34.3457 128.129 31.7402 130.447 28.2227C132.768 24.7051 133.795 20.4902 133.354 16.3008C132.912 12.1113 131.031 8.20312 128.029 5.24414C126.338 3.5625 124.328 2.23438 122.117 1.33398C119.906 0.433594 117.539 -0.0195312 115.152 0ZM115.152 27.0762C112.771 27.0762 110.488 26.1289 108.807 24.4453C107.123 22.7617 106.18 20.4805 106.18 18.0996C106.18 15.7207 107.125 13.4375 108.811 11.7559C110.494 10.0723 112.777 9.12695 115.158 9.12695C117.539 9.12695 119.82 10.0723 121.506 11.7559C123.189 13.4375 124.135 15.7207 124.137 18.0996C124.137 20.4805 123.191 22.7617 121.51 24.4453C119.826 26.1289 117.543 27.0762 115.164 27.0762L115.152 27.0762Z" fill="#FDDD0A" fill-opacity="1.000000" fill-rule="evenodd"/>
		<path id="Vector" d="M36.1191 13.0391C36.1191 18.748 32.3281 23.6055 27.0508 25.3691L32.4473 36.1074L21.9512 36.1074L12.3516 17.0508L12.3789 17.0508L12.3281 16.9473L23.4707 16.9473C25.7012 16.9473 27.5098 15.1953 27.5098 13.0352C27.5098 10.875 25.7012 9.125 23.4707 9.125L7.50195 9.125L3.00977 0L22.6641 0C30.0957 0 36.1191 5.83789 36.1191 13.0391ZM5.01367 26.0781C3.85156 26.0801 2.72852 26.4824 1.83203 27.2188C0.935547 27.9551 0.322266 28.9805 0.0957031 30.1172C-0.130859 31.2559 0.046875 32.4375 0.59375 33.459C1.14062 34.4824 2.02734 35.2832 3.09961 35.7266C4.17188 36.1699 5.36523 36.2285 6.47461 35.8906C7.58594 35.5527 8.54492 34.8418 9.18945 33.877C9.83203 32.9121 10.123 31.7539 10.0078 30.5996C9.89453 29.4453 9.38281 28.3652 8.56055 27.5449C8.0957 27.0801 7.54297 26.7109 6.93359 26.459C6.32422 26.207 5.67188 26.0781 5.01367 26.0781Z" fill="#FDDD0A" fill-opacity="1.000000" fill-rule="evenodd"/>
	</g>
</svg>
