<svg width="26.833984" height="49.500000" viewBox="0 0 26.834 49.5" fill="none" xmlns="http://www.w3.org/2000/svg" xmlns:xlink="http://www.w3.org/1999/xlink">
	<desc>
			Created with Pixso.
	</desc>
	<defs/>
	<path id="Vector 10" d="M26.084 44.75C26.084 46.959 24.293 48.75 22.084 48.75L4.75 48.75C2.54102 48.75 0.75 46.959 0.75 44.75L0.75 4.75C0.75 2.54102 2.54102 0.75 4.75 0.75L8.30469 0.75L18.9727 0.75L22.084 0.75C24.293 0.75 26.084 2.54102 26.084 4.75L26.084 44.75ZM8.30469 0.75L10.084 4.30469L17.1953 4.30469L18.9727 0.75" stroke="#FFFFFF" stroke-opacity="1.000000" stroke-width="1.500000"/>
	<path id="Vector 7" d="M9.10352 21.1953L4.75 25.5488L9.10352 29.9023" stroke="#FFFFFF" stroke-opacity="1.000000" stroke-width="1.500000"/>
	<path id="Vector 8" d="M17.8105 29.9023L22.1641 25.5488L17.8105 21.1953" stroke="#FFFFFF" stroke-opacity="1.000000" stroke-width="1.500000"/>
	<path id="Vector 9" d="M16.0703 21.1953L10.8457 29.9023" stroke="#FFFFFF" stroke-opacity="1.000000" stroke-width="1.500000"/>
</svg>
