<svg width="213.597656" height="34.000000" viewBox="0 0 213.598 34" fill="none" xmlns="http://www.w3.org/2000/svg" xmlns:xlink="http://www.w3.org/1999/xlink">
	<desc>
			Created with Pixso.
	</desc>
	<defs/>
	<path id="Vector" d="M29.2949 0L34.4785 0L34.4785 32L29.2949 32L29.2949 0Z" fill="#FFFFFF" fill-opacity="1.000000" fill-rule="nonzero"/>
	<path id="Vector" d="M52.5078 21.8574C52.5078 26.8164 48.4512 27.2656 47.0996 27.2656C43.9434 27.2656 43.4941 24.3379 43.4941 22.7598L43.4941 10.3652L38.3105 10.3652L38.3105 22.5332C38.3105 25.4629 39.2129 28.168 41.0156 29.7461C42.5918 31.3223 44.6211 31.998 47.0996 31.998C48.9023 31.998 51.1562 31.5488 52.5078 30.1953L52.5078 31.998L57.6914 31.998L57.6914 10.3652L52.5078 10.3652L52.5078 21.8574Z" fill="#FFFFFF" fill-opacity="1.000000" fill-rule="nonzero"/>
	<path id="Vector" d="M67.8301 2.47852L62.6465 2.47852L62.6465 10.3652L58.8164 10.3652L58.8164 15.3242L62.6465 15.3242L62.6465 32L67.8301 32L67.8301 15.3242L71.6621 15.3242L71.6621 10.3652L67.8301 10.3652L67.8301 2.47852Z" fill="#FFFFFF" fill-opacity="1.000000" fill-rule="nonzero"/>
	<path id="Vector" d="M87.8867 25.4648C86.7598 26.3672 85.1816 27.043 83.6055 27.043C80 27.043 77.5195 24.3379 77.5195 20.7324C77.5195 17.127 80 14.6484 83.6055 14.6484C85.1816 14.6484 86.7598 15.0996 87.8867 16.2266L88.5625 16.9023L92.168 13.5215L91.2676 12.8457C89.2383 11.043 86.5352 9.91602 83.6055 9.91602C77.2949 9.91602 72.5625 14.6484 72.5625 20.959C72.5625 27.2676 77.2949 32 83.6055 32C86.5352 32 89.2383 30.873 91.2676 29.0703L92.168 28.3945L88.5625 24.7891L87.8867 25.4648Z" fill="#FFFFFF" fill-opacity="1.000000" fill-rule="nonzero"/>
	<path id="Vector" d="M110.422 12.168C108.844 10.5918 107.266 9.91602 104.787 9.91602C102.984 9.91602 101.182 10.3652 99.8301 11.7188L99.8301 0L94.6465 0L94.6465 32L99.8301 32L99.8301 20.0566C99.8301 15.0977 103.209 14.6484 104.562 14.6484C107.717 14.6484 107.492 17.5781 107.492 19.1543L107.492 31.7754L112.674 31.7754L112.674 19.3809C112.674 16.4512 111.998 13.7461 110.422 12.168Z" fill="#FFFFFF" fill-opacity="1.000000" fill-rule="nonzero"/>
	<path id="Vector" d="M22.084 24.1133C20.2812 25.916 17.5781 27.041 14.6484 27.041C9.01367 27.041 4.95703 22.5352 4.95703 16.4512C4.95703 10.3652 9.01367 5.85938 14.873 5.85938C17.5781 5.85938 20.2812 6.98633 22.3105 9.01367L22.9863 9.68945L26.3652 6.31055L25.6895 5.63281C22.7598 2.70312 18.9297 1.12695 14.873 1.12695C6.31055 0.900391 0 7.66211 0 16.4512C0 25.2383 6.31055 32 14.6484 32C18.7051 32 22.7598 30.4219 25.4648 27.4922L26.1406 26.8164L22.7598 23.4355L22.084 24.1133Z" fill="#FFFFFF" fill-opacity="1.000000" fill-rule="nonzero"/>
	<path id="Vector" d="M86.9844 20.959C86.9844 22.9512 85.3711 24.5645 83.3789 24.5645C81.3887 24.5645 79.7734 22.9512 79.7734 20.959C79.7734 18.9688 81.3887 17.3535 83.3789 17.3535C85.3711 17.3535 86.9844 18.9688 86.9844 20.959Z" fill="#EF4335" fill-opacity="1.000000" fill-rule="evenodd"/>
	<path id="Star 1" d="M135.129 0.0996094C135.203 -0.0332031 135.395 -0.0332031 135.469 0.0996094L137.418 3.55859C137.445 3.60742 137.494 3.64258 137.549 3.65234L141.441 4.43945C141.59 4.46875 141.648 4.65039 141.547 4.76172L138.859 7.68359C138.82 7.72656 138.803 7.78125 138.809 7.83789L139.264 11.7832C139.281 11.9336 139.129 12.0449 138.99 11.9824L135.379 10.3301C135.328 10.3066 135.27 10.3066 135.217 10.3301L131.607 11.9824C131.469 12.0449 131.316 11.9336 131.332 11.7832L131.789 7.83789C131.795 7.78125 131.777 7.72656 131.738 7.68359L129.051 4.76172C128.949 4.65039 129.008 4.46875 129.156 4.43945L133.049 3.65234C133.104 3.64258 133.152 3.60742 133.18 3.55859L135.129 0.0996094Z" fill="#FDDD0A" fill-opacity="1.000000" fill-rule="nonzero"/>
	<path id="Star 2" d="M153.129 0.0996094C153.203 -0.0332031 153.395 -0.0332031 153.469 0.0996094L155.418 3.55859C155.445 3.60742 155.494 3.64258 155.549 3.65234L159.441 4.43945C159.59 4.46875 159.648 4.65039 159.547 4.76172L156.859 7.68359C156.82 7.72656 156.803 7.78125 156.809 7.83789L157.264 11.7832C157.281 11.9336 157.129 12.0449 156.99 11.9824L153.379 10.3301C153.328 10.3066 153.27 10.3066 153.217 10.3301L149.607 11.9824C149.469 12.0449 149.316 11.9336 149.332 11.7832L149.789 7.83789C149.795 7.78125 149.777 7.72656 149.738 7.68359L147.051 4.76172C146.949 4.65039 147.008 4.46875 147.156 4.43945L151.049 3.65234C151.104 3.64258 151.152 3.60742 151.18 3.55859L153.129 0.0996094Z" fill="#FDDD0A" fill-opacity="1.000000" fill-rule="nonzero"/>
	<path id="Star 3" d="M171.129 0.0996094C171.203 -0.0332031 171.395 -0.0332031 171.469 0.0996094L173.418 3.55859C173.445 3.60742 173.494 3.64258 173.549 3.65234L177.441 4.43945C177.59 4.46875 177.648 4.65039 177.547 4.76172L174.859 7.68359C174.82 7.72656 174.803 7.78125 174.809 7.83789L175.264 11.7832C175.281 11.9336 175.129 12.0449 174.99 11.9824L171.379 10.3301C171.328 10.3066 171.27 10.3066 171.217 10.3301L167.607 11.9824C167.469 12.0449 167.316 11.9336 167.332 11.7832L167.789 7.83789C167.795 7.78125 167.777 7.72656 167.738 7.68359L165.051 4.76172C164.949 4.65039 165.008 4.46875 165.156 4.43945L169.049 3.65234C169.104 3.64258 169.152 3.60742 169.18 3.55859L171.129 0.0996094Z" fill="#FDDD0A" fill-opacity="1.000000" fill-rule="nonzero"/>
	<path id="10 Reviews" d="M140.155 31.5158Q140.748 31.1741 141.186 30.563Q142.18 29.177 142.18 26.867Q142.18 24.557 141.186 23.171C140.524 22.247 139.595 21.785 138.4 21.785Q137.398 21.785 136.646 22.2182Q136.053 22.5599 135.614 23.171Q134.62 24.557 134.62 26.867Q134.62 29.177 135.614 30.563Q136.053 31.1741 136.646 31.5158Q137.398 31.949 138.4 31.949Q139.402 31.949 140.155 31.5158ZM170.598 23.255C170.757 23.4137 170.953 23.493 171.186 23.493C171.41 23.493 171.602 23.4137 171.76 23.255C171.919 23.0963 171.998 22.905 171.998 22.681C171.998 22.457 171.919 22.2657 171.76 22.107C171.602 21.939 171.41 21.855 171.186 21.855C170.953 21.855 170.757 21.939 170.598 22.107C170.44 22.2657 170.36 22.457 170.36 22.681C170.36 22.905 170.44 23.0963 170.598 23.255ZM132.892 21.967L131.772 21.967L129.196 22.863L129.518 23.983L131.604 23.367L131.604 31.767L132.892 31.767L132.892 21.967ZM150.971 28.015L153.169 31.767L154.611 31.767L152.301 27.847C152.898 27.6323 153.383 27.2637 153.757 26.741C154.139 26.2183 154.331 25.6397 154.331 25.005Q154.331 24.3704 154.103 23.8317Q153.879 23.3008 153.435 22.863Q152.978 22.4064 152.427 22.1824Q151.896 21.967 151.279 21.967L147.359 21.967L147.359 31.767L148.661 31.767L148.661 28.015L150.971 28.015ZM137.337 30.4213Q136.885 30.1729 136.566 29.681Q135.922 28.687 135.922 26.867Q135.922 25.033 136.566 24.039Q136.885 23.5471 137.337 23.2987Q137.799 23.045 138.4 23.045Q138.989 23.045 139.443 23.2914Q139.909 23.5434 140.234 24.053Q140.892 25.047 140.892 26.867Q140.892 28.687 140.234 29.681C139.805 30.3437 139.194 30.675 138.4 30.675Q137.799 30.675 137.337 30.4213ZM148.661 26.839L148.661 23.185L151.279 23.185C151.764 23.185 152.175 23.3623 152.511 23.717C152.856 24.0717 153.029 24.501 153.029 25.005C153.029 25.509 152.856 25.943 152.511 26.307C152.175 26.6617 151.764 26.839 151.279 26.839L148.661 26.839ZM157.144 30.283C156.696 29.9377 156.411 29.4523 156.29 28.827L162.156 28.827C162.184 28.6403 162.198 28.4583 162.198 28.281C162.198 27.2637 161.871 26.3957 161.218 25.677C160.574 24.949 159.738 24.585 158.712 24.585C157.629 24.585 156.747 24.935 156.066 25.635Q155.692 26.0193 155.454 26.4749Q155.044 27.264 155.044 28.267Q155.044 29.2811 155.462 30.0748Q155.702 30.5302 156.08 30.913C156.78 31.6037 157.685 31.949 158.796 31.949Q160.023 31.949 160.881 31.3866Q161.463 31.0058 161.876 30.367L160.84 29.779C160.42 30.4603 159.748 30.801 158.824 30.801C158.161 30.801 157.601 30.6283 157.144 30.283ZM175.355 30.283C174.907 29.9377 174.622 29.4523 174.501 28.827L180.367 28.827C180.395 28.6403 180.409 28.4583 180.409 28.281C180.409 27.2637 180.082 26.3957 179.429 25.677C178.785 24.949 177.949 24.585 176.923 24.585Q175.839 24.585 175.023 25.0527Q174.617 25.2858 174.277 25.635C173.595 26.335 173.255 27.2123 173.255 28.267Q173.255 29.2811 173.673 30.0748Q173.913 30.5302 174.291 30.913C174.991 31.6037 175.896 31.949 177.007 31.949C178.379 31.949 179.405 31.4217 180.087 30.367L179.051 29.779C178.631 30.4603 177.959 30.801 177.035 30.801C176.372 30.801 175.812 30.6283 175.355 30.283ZM193.327 27.315C193.057 27.147 192.921 26.9277 192.921 26.657C192.921 26.3583 193.043 26.1297 193.285 25.971C193.528 25.803 193.822 25.719 194.167 25.719C194.914 25.719 195.413 26.0177 195.665 26.615L196.687 26.041Q196.528 25.7161 196.294 25.4603Q196.033 25.176 195.679 24.977C195.241 24.7157 194.737 24.585 194.167 24.585Q193.321 24.585 192.696 24.9569Q192.535 25.0526 192.389 25.173Q192.035 25.4708 191.86 25.8512Q191.689 26.2219 191.689 26.671C191.689 27.1377 191.825 27.5203 192.095 27.819C192.366 28.1177 192.693 28.3323 193.075 28.463C193.458 28.5937 193.841 28.7103 194.223 28.813C194.606 28.9063 194.933 29.037 195.203 29.205C195.474 29.3637 195.609 29.5783 195.609 29.849C195.609 30.1757 195.479 30.4183 195.217 30.577C194.956 30.7263 194.625 30.801 194.223 30.801Q193.592 30.801 193.135 30.5184Q193.126 30.5128 193.117 30.507C192.809 30.311 192.599 30.045 192.487 29.709L191.437 30.311C191.643 30.8057 191.988 31.2023 192.473 31.501C192.959 31.7997 193.542 31.949 194.223 31.949C194.989 31.949 195.614 31.7577 196.099 31.375C196.594 30.9923 196.841 30.4837 196.841 29.849C196.841 29.373 196.706 28.9857 196.435 28.687C196.165 28.379 195.838 28.1643 195.455 28.043C195.073 27.9123 194.69 27.8003 194.307 27.707C193.925 27.6043 193.598 27.4737 193.327 27.315ZM169.54 24.767L168.224 24.767L166.026 30.465L163.828 24.767L162.512 24.767L165.312 31.767L166.74 31.767L169.54 24.767ZM170.57 24.767L170.57 31.767L171.788 31.767L171.788 24.767L170.57 24.767ZM191.055 24.767L189.781 24.767L188.241 30.101L186.589 24.767L185.413 24.767L183.761 30.087L182.221 24.767L180.947 24.767L183.117 31.767L184.363 31.767L186.001 26.587L187.639 31.767L188.885 31.767L191.055 24.767ZM157.088 26.293C157.517 25.9197 158.058 25.733 158.712 25.733Q159.186 25.733 159.593 25.8981Q159.907 26.0255 160.182 26.251Q160.256 26.3119 160.323 26.3795Q160.83 26.8859 160.966 27.763L156.29 27.763C156.392 27.147 156.658 26.657 157.088 26.293ZM175.299 26.293C175.728 25.9197 176.269 25.733 176.923 25.733C177.483 25.733 177.973 25.9057 178.393 26.251Q178.467 26.3119 178.534 26.3795Q179.041 26.8859 179.177 27.763L174.501 27.763C174.603 27.147 174.869 26.657 175.299 26.293Z" fill="#B6B6B6" fill-opacity="1.000000" fill-rule="evenodd"/>
	<path id="Star 4" d="M189.129 0.0996094C189.203 -0.0332031 189.395 -0.0332031 189.469 0.0996094L191.418 3.55859C191.445 3.60742 191.494 3.64258 191.549 3.65234L195.441 4.43945C195.59 4.46875 195.648 4.65039 195.547 4.76172L192.859 7.68359C192.82 7.72656 192.803 7.78125 192.809 7.83789L193.264 11.7832C193.281 11.9336 193.129 12.0449 192.99 11.9824L189.379 10.3301C189.328 10.3066 189.27 10.3066 189.217 10.3301L185.607 11.9824C185.469 12.0449 185.316 11.9336 185.332 11.7832L185.789 7.83789C185.795 7.78125 185.777 7.72656 185.738 7.68359L183.051 4.76172C182.949 4.65039 183.008 4.46875 183.156 4.43945L187.049 3.65234C187.104 3.64258 187.152 3.60742 187.18 3.55859L189.129 0.0996094Z" fill="#FDDD0A" fill-opacity="1.000000" fill-rule="nonzero"/>
	<path id="Star 5" d="M207.129 0.0996094C207.203 -0.0332031 207.395 -0.0332031 207.469 0.0996094L209.418 3.55859C209.445 3.60742 209.494 3.64258 209.549 3.65234L213.441 4.43945C213.59 4.46875 213.648 4.65039 213.547 4.76172L210.859 7.68359C210.82 7.72656 210.803 7.78125 210.809 7.83789L211.264 11.7832C211.281 11.9336 211.129 12.0449 210.99 11.9824L207.379 10.3301C207.328 10.3066 207.27 10.3066 207.217 10.3301L203.607 11.9824C203.469 12.0449 203.316 11.9336 203.332 11.7832L203.789 7.83789C203.795 7.78125 203.777 7.72656 203.738 7.68359L201.051 4.76172C200.949 4.65039 201.008 4.46875 201.156 4.43945L205.049 3.65234C205.104 3.64258 205.152 3.60742 205.18 3.55859L207.129 0.0996094Z" fill="#FDDD0A" fill-opacity="1.000000" fill-rule="nonzero"/>
</svg>
