<svg width="49.500000" height="49.500000" viewBox="0 0 49.5 49.5" fill="none" xmlns="http://www.w3.org/2000/svg" xmlns:xlink="http://www.w3.org/1999/xlink">
	<desc>
			Created with Pixso.
	</desc>
	<defs/>
	<path id="Vector 11" d="M44.75 0.75C46.959 0.75 48.75 2.54102 48.75 4.75L48.75 12.6094L48.75 44.75C48.75 46.959 46.959 48.75 44.75 48.75L4.75 48.75C2.54102 48.75 0.75 46.959 0.75 44.75L0.75 12.6094L0.75 4.75C0.75 2.54102 2.54102 0.75 4.75 0.75L44.75 0.75ZM0.75 12.6094L48.75 12.6094M32.9375 6.75L43.1035 6.75" stroke="#FFFFFF" stroke-opacity="1.000000" stroke-width="1.500000"/>
	<circle id="Ellipse 14" cx="6.960938" cy="6.832031" r="1.694118" fill="#FFFFFF" fill-opacity="1.000000"/>
	<circle id="Ellipse 15" cx="12.607422" cy="6.832031" r="1.694118" fill="#FFFFFF" fill-opacity="1.000000"/>
	<circle id="Ellipse 16" cx="18.255859" cy="6.832031" r="1.694118" fill="#FFFFFF" fill-opacity="1.000000"/>
	<path id="Vector 7" d="M19.2207 24.4688L14.3027 29.3867L19.2207 34.3027" stroke="#FFFFFF" stroke-opacity="1.000000" stroke-width="1.500000"/>
	<path id="Vector 8" d="M29.0527 34.3027L33.9707 29.3848L29.0527 24.4688" stroke="#FFFFFF" stroke-opacity="1.000000" stroke-width="1.500000"/>
	<path id="Vector 9" d="M27.0879 24.4688L21.1875 34.3027" stroke="#FFFFFF" stroke-opacity="1.000000" stroke-width="1.500000"/>
</svg>
