<svg width="112.675781" height="32.000000" viewBox="0 0 112.676 32" fill="none" xmlns="http://www.w3.org/2000/svg" xmlns:xlink="http://www.w3.org/1999/xlink">
	<desc>
			Created with Pixso.
	</desc>
	<defs/>
	<path id="Vector" d="M29.2949 0L34.4785 0L34.4785 32L29.2949 32L29.2949 0Z" fill="#FFFFFF" fill-opacity="1.000000" fill-rule="nonzero"/>
	<path id="Vector" d="M52.5078 21.8574C52.5078 26.8164 48.4512 27.2656 47.0996 27.2656C43.9434 27.2656 43.4941 24.3379 43.4941 22.7598L43.4941 10.3652L38.3105 10.3652L38.3105 22.5332C38.3105 25.4629 39.2129 28.168 41.0156 29.7461C42.5918 31.3223 44.6211 31.998 47.0996 31.998C48.9023 31.998 51.1562 31.5488 52.5078 30.1953L52.5078 31.998L57.6914 31.998L57.6914 10.3652L52.5078 10.3652L52.5078 21.8574Z" fill="#FFFFFF" fill-opacity="1.000000" fill-rule="nonzero"/>
	<path id="Vector" d="M67.8301 2.47852L62.6465 2.47852L62.6465 10.3652L58.8164 10.3652L58.8164 15.3242L62.6465 15.3242L62.6465 32L67.8301 32L67.8301 15.3242L71.6621 15.3242L71.6621 10.3652L67.8301 10.3652L67.8301 2.47852Z" fill="#FFFFFF" fill-opacity="1.000000" fill-rule="nonzero"/>
	<path id="Vector" d="M87.8867 25.4648C86.7598 26.3672 85.1816 27.043 83.6055 27.043C80 27.043 77.5195 24.3379 77.5195 20.7324C77.5195 17.127 80 14.6484 83.6055 14.6484C85.1816 14.6484 86.7598 15.0996 87.8867 16.2266L88.5625 16.9023L92.168 13.5215L91.2676 12.8457C89.2383 11.043 86.5352 9.91602 83.6055 9.91602C77.2949 9.91602 72.5625 14.6484 72.5625 20.959C72.5625 27.2676 77.2949 32 83.6055 32C86.5352 32 89.2383 30.873 91.2676 29.0703L92.168 28.3945L88.5625 24.7891L87.8867 25.4648Z" fill="#FFFFFF" fill-opacity="1.000000" fill-rule="nonzero"/>
	<path id="Vector" d="M110.422 12.168C108.844 10.5918 107.266 9.91602 104.787 9.91602C102.984 9.91602 101.182 10.3652 99.8301 11.7188L99.8301 0L94.6465 0L94.6465 32L99.8301 32L99.8301 20.0566C99.8301 15.0977 103.209 14.6484 104.562 14.6484C107.717 14.6484 107.492 17.5781 107.492 19.1543L107.492 31.7754L112.674 31.7754L112.674 19.3809C112.674 16.4512 111.998 13.7461 110.422 12.168Z" fill="#FFFFFF" fill-opacity="1.000000" fill-rule="nonzero"/>
	<path id="Vector" d="M22.084 24.1133C20.2812 25.916 17.5781 27.041 14.6484 27.041C9.01367 27.041 4.95703 22.5352 4.95703 16.4512C4.95703 10.3652 9.01367 5.85938 14.873 5.85938C17.5781 5.85938 20.2812 6.98633 22.3105 9.01367L22.9863 9.68945L26.3652 6.31055L25.6895 5.63281C22.7598 2.70312 18.9297 1.12695 14.873 1.12695C6.31055 0.900391 0 7.66211 0 16.4512C0 25.2383 6.31055 32 14.6484 32C18.7051 32 22.7598 30.4219 25.4648 27.4922L26.1406 26.8164L22.7598 23.4355L22.084 24.1133Z" fill="#FFFFFF" fill-opacity="1.000000" fill-rule="nonzero"/>
	<path id="Vector" d="M86.9844 20.959C86.9844 22.9512 85.3711 24.5645 83.3789 24.5645C81.3887 24.5645 79.7734 22.9512 79.7734 20.959C79.7734 18.9688 81.3887 17.3535 83.3789 17.3535C85.3711 17.3535 86.9844 18.9688 86.9844 20.959Z" fill="#EF4335" fill-opacity="1.000000" fill-rule="evenodd"/>
</svg>
